<svg width="17" height="10" viewBox="0 0 17 10" fill="none" xmlns="http://www.w3.org/2000/svg">
<path fill-rule="evenodd" clip-rule="evenodd" d="M1.73123 5.1232C1.73123 3.68067 2.90381 2.50809 4.34634 2.50809H7.72069V0.905273H4.34634C2.01805 0.905273 0.128418 2.7949 0.128418 5.1232C0.128418 7.45149 2.01805 9.34113 4.34634 9.34113H7.72069V7.73831H4.34634C2.90381 7.73831 1.73123 6.56573 1.73123 5.1232ZM5.18982 5.96647H11.9385V4.2793H5.18982V5.96647ZM12.7821 0.904907H9.40771V2.50772H12.7821C14.2246 2.50772 15.3972 3.6803 15.3972 5.12283C15.3972 6.56536 14.2246 7.73795 12.7821 7.73795H9.40771V9.34076H12.7821C15.1104 9.34076 17 7.45113 17 5.12283C17 2.79454 15.1104 0.904907 12.7821 0.904907Z" fill="white"/>
</svg>
