<svg width="22" height="19" viewBox="0 0 22 19" fill="none" xmlns="http://www.w3.org/2000/svg">
<path d="M5.81546 0C7.40648 0 8.88778 0.649573 9.93017 1.67806C10.3691 2.05698 10.6983 2.54416 10.9726 3.08547C11.2469 2.59829 11.5761 2.11111 12.015 1.67806C13.1122 0.649573 14.5387 0 16.1297 0C17.7756 0 19.202 0.649573 20.2993 1.67806C21.3416 2.70655 22 4.16809 22 5.73789C22 8.93162 17.3915 13.4245 14.3741 16.4558C13.606 17.2137 13.0025 17.8091 12.5087 18.3504C12.2893 18.567 12.0698 18.7293 11.8504 18.8376C11.5761 18.9459 11.3017 19 11.0274 19C10.7531 19 10.4788 18.9459 10.2045 18.8376C9.93017 18.7293 9.71072 18.567 9.54613 18.3504C9.10723 17.8632 8.44888 17.2137 7.6808 16.4558C4.60848 13.4786 0 8.93162 0 5.73789C0 4.16809 0.658354 2.70655 1.70075 1.67806C2.74314 0.649573 4.22444 0 5.81546 0ZM8.99751 2.59829C8.17456 1.78632 7.07731 1.29915 5.81546 1.29915C4.55362 1.29915 3.45636 1.78632 2.63342 2.59829C1.81047 3.41026 1.31671 4.49288 1.31671 5.73789C1.31671 8.39031 5.65087 12.6667 8.5586 15.5356C9.32668 16.2934 9.98504 16.943 10.4788 17.4843C10.5337 17.5385 10.6434 17.5926 10.6983 17.6467C10.7531 17.7009 10.8628 17.7009 10.9726 17.7009C11.0823 17.7009 11.192 17.7009 11.2469 17.6467C11.3017 17.5926 11.4115 17.5385 11.4663 17.4843C11.9052 16.9972 12.6185 16.2934 13.3865 15.5356C16.2943 12.6667 20.6284 8.39031 20.6284 5.73789C20.6284 4.49288 20.1347 3.41026 19.3117 2.59829C18.4888 1.78632 17.3915 1.29915 16.1297 1.29915C14.8678 1.29915 13.7706 1.78632 12.9476 2.59829C12.2344 3.30199 11.7955 4.22222 11.6858 5.25071C11.5761 6.2792 10.4239 6.2792 10.3142 5.25071C10.2045 4.22222 9.71072 3.30199 8.99751 2.59829Z" fill="#FF2998"/>
<path d="M19 10.5L15.5 14.5L11 18.5L6.5 14.5L1 8V4L2 2L5 1H7.5L9.5 2.5L11 5L11.5 3L13.5 1L16 0.5L17.5 1L19.5 2L20.5 3L21 5L20.5 7.5L19 10.5Z" fill="#FF2998"/>
</svg>
