<svg width="12" height="15" viewBox="0 0 12 15" fill="none" xmlns="http://www.w3.org/2000/svg">
<g opacity="0.6">
<path d="M5.12703 13.5945C4.32879 12.5664 3.26447 11.2336 2.42822 9.78653C1.55396 8.33949 0.869751 6.74014 0.869751 5.2931C0.869751 3.84607 1.47793 2.51327 2.42822 1.56127C3.3785 0.609278 4.7089 0 6.15333 0C7.59777 0 8.92816 0.609278 9.87845 1.56127C10.8287 2.51327 11.4369 3.84607 11.4369 5.2931C11.4369 6.74014 10.7527 8.33949 9.87845 9.78653C9.00419 11.2336 7.97788 12.5664 7.17964 13.5945C7.14163 13.6326 7.10362 13.6707 7.06561 13.7088C7.0276 13.7468 6.98958 13.7849 6.95157 13.823C6.91356 13.8611 6.87555 13.8992 6.83754 13.8992C6.79953 13.9372 6.76152 13.9372 6.7235 13.9753C6.68549 14.0134 6.64748 14.0134 6.57146 14.0515C6.53345 14.0515 6.49544 14.0896 6.41941 14.0896C6.3814 14.0896 6.30538 14.0896 6.26737 14.1276C6.22936 14.1276 6.15333 14.1276 6.11532 14.1276C6.07731 14.1276 6.0393 14.1276 5.96328 14.1276C5.92526 14.1276 5.88725 14.1276 5.81123 14.0896C5.77322 14.0896 5.6972 14.0515 5.65919 14.0515C5.62117 14.0515 5.54515 14.0134 5.50714 14.0134C5.46913 13.9753 5.43112 13.9753 5.39311 13.9372C5.35509 13.8992 5.31708 13.8611 5.27907 13.8611C5.24106 13.823 5.20305 13.7849 5.16504 13.7468C5.20305 13.6707 5.16504 13.6326 5.12703 13.5945ZM3.22646 9.32957C4.06271 10.7004 5.08901 12.0332 5.88725 13.0233C5.92526 13.0614 5.92526 13.0614 6.00129 13.0995L6.0393 13.1376C6.07731 13.1376 6.07731 13.1376 6.11532 13.1756H6.15333H6.19134H6.22936H6.26737C6.30538 13.1756 6.34339 13.1376 6.3814 13.1376L6.41941 13.0995L6.45742 13.0614L6.49544 13.0233C7.29367 12.0332 8.31998 10.7004 9.15623 9.32957C9.95447 7.99677 10.5627 6.54974 10.5627 5.2931C10.5627 4.07455 10.0685 3.00831 9.27027 2.20863C8.47203 1.40896 7.40771 0.913917 6.19134 0.913917C4.97498 0.913917 3.91066 1.40896 3.11242 2.20863C2.31418 3.00831 1.82004 4.11263 1.82004 5.2931C1.82004 6.54974 2.42822 7.95869 3.22646 9.32957ZM6.15333 2.28479C6.53345 2.28479 6.87555 2.36095 7.17964 2.47519C7.52174 2.62751 7.82583 2.81791 8.0539 3.04639C8.31998 3.31295 8.51004 3.57951 8.62407 3.92223C8.73811 4.22687 8.81413 4.60766 8.81413 4.95038C8.81413 5.33118 8.73811 5.6739 8.62407 5.97854C8.47203 6.32126 8.28197 6.6259 8.0539 6.85438C7.78782 7.12094 7.52174 7.31134 7.17964 7.42558C6.87555 7.53981 6.49544 7.61597 6.15333 7.61597C5.81123 7.61597 5.43112 7.61597 5.12703 7.46365C4.78492 7.31134 4.48083 7.12094 4.25276 6.89246C3.98668 6.6259 3.79663 6.35934 3.68259 6.01662C3.53055 5.6739 3.45453 5.33118 3.45453 4.98846C3.45453 4.60766 3.53055 4.26495 3.64458 3.96031C3.79663 3.61759 3.98668 3.31295 4.25276 3.04639C4.51884 2.77983 4.78492 2.58943 5.12703 2.47519C5.43112 2.36095 5.81123 2.28479 6.15333 2.28479ZM6.83754 3.35103C6.64748 3.27487 6.41941 3.23679 6.15333 3.23679C5.92526 3.23679 5.6972 3.27487 5.46913 3.35103C5.24106 3.42719 5.051 3.57951 4.89896 3.73183C4.74691 3.88415 4.59487 4.07455 4.51884 4.30303C4.44282 4.49342 4.40481 4.7219 4.40481 4.98846C4.40481 5.21694 4.44282 5.44542 4.51884 5.6739C4.59487 5.90238 4.74691 6.09278 4.89896 6.2451C5.051 6.39742 5.24106 6.54974 5.46913 6.6259C5.65919 6.70206 5.88725 6.74014 6.15333 6.74014C6.3814 6.74014 6.60947 6.70206 6.83754 6.6259C7.06561 6.54974 7.25566 6.39742 7.40771 6.2451C7.55975 6.09278 7.7118 5.90238 7.78782 5.6739C7.86385 5.4835 7.90186 5.25502 7.90186 4.98846C7.90186 4.75998 7.86385 4.53151 7.78782 4.30303C7.7118 4.07455 7.55975 3.88415 7.40771 3.73183C7.25566 3.54143 7.06561 3.42719 6.83754 3.35103Z" fill="#211536"/>
</g>
</svg>
