<svg width="14" height="12" viewBox="0 0 14 12" fill="none" xmlns="http://www.w3.org/2000/svg">
<g opacity="0.6">
<path d="M5.52979 0.814787H8.73516C8.9433 0.814787 9.15145 0.977745 9.15145 1.22218V1.42588C9.15145 1.62957 8.98493 1.83327 8.73516 1.83327H5.52979C5.32165 1.83327 5.11351 1.67031 5.11351 1.42588V1.22218C5.15514 0.977745 5.32165 0.814787 5.52979 0.814787ZM4.78048 7.8627H5.19676C5.40491 7.8627 5.61305 8.02565 5.61305 8.27009V8.35157C5.61305 8.55527 5.44653 8.75896 5.19676 8.75896H4.78048C4.57234 8.75896 4.3642 8.59601 4.3642 8.35157V8.27009C4.3642 8.06639 4.57234 7.8627 4.78048 7.8627ZM6.94515 7.8627H7.36143C7.56957 7.8627 7.77771 8.02565 7.77771 8.27009V8.35157C7.77771 8.55527 7.6112 8.75896 7.36143 8.75896H6.94515C6.73701 8.75896 6.52887 8.59601 6.52887 8.35157V8.27009C6.52887 8.06639 6.73701 7.8627 6.94515 7.8627ZM9.10982 7.8627H9.5261C9.73424 7.8627 9.94238 8.02565 9.94238 8.27009V8.35157C9.94238 8.55527 9.77587 8.75896 9.5261 8.75896H9.10982C8.90168 8.75896 8.69354 8.59601 8.69354 8.35157V8.27009C8.69354 8.06639 8.90168 7.8627 9.10982 7.8627ZM2.61581 1.26292V1.46662C2.61581 1.62957 2.53256 1.79253 2.36605 1.83327C2.11628 1.91475 1.94976 2.15919 1.94976 2.44436V9.77745C1.94976 9.9404 2.03302 10.1034 2.1579 10.2256C2.28279 10.3478 2.4493 10.4293 2.61581 10.4293H11.7324C12.107 10.4293 12.3984 10.1441 12.3984 9.77745V2.44436C12.3984 2.2814 12.3152 2.11845 12.1903 1.99623C12.1487 1.95549 12.0654 1.87401 11.9822 1.83327C11.8157 1.79253 11.7324 1.62957 11.7324 1.46662V1.26292C11.7324 1.1407 11.774 1.01848 11.8989 0.937005C12.0238 0.855527 12.1487 0.855527 12.2736 0.896266C12.5233 0.977745 12.7315 1.09996 12.9396 1.30366C13.231 1.58884 13.3975 1.99623 13.3975 2.44436V9.77745C13.3975 10.7145 12.3984 11.4478 11.5243 11.4478H2.61581C2.1579 11.4478 1.74162 11.2441 1.4086 10.9589C1.1172 10.633 0.909058 10.2256 0.909058 9.77745V2.44436C0.909058 1.71105 1.4086 1.09996 2.07465 0.896266C2.19953 0.855527 2.32442 0.855527 2.4493 0.937005C2.53256 1.01848 2.61581 1.1407 2.61581 1.26292ZM6.94515 6.19238H7.36143C7.56957 6.19238 7.77771 6.35534 7.77771 6.59978V6.68126C7.77771 6.88495 7.6112 7.08865 7.36143 7.08865H6.94515C6.73701 7.08865 6.52887 6.92569 6.52887 6.68126V6.59978C6.52887 6.35534 6.73701 6.19238 6.94515 6.19238ZM9.10982 6.19238H9.5261C9.73424 6.19238 9.94238 6.35534 9.94238 6.59978V6.68126C9.94238 6.88495 9.77587 7.08865 9.5261 7.08865H9.10982C8.90168 7.08865 8.69354 6.92569 8.69354 6.68126V6.59978C8.69354 6.35534 8.90168 6.19238 9.10982 6.19238ZM4.78048 6.19238H5.19676C5.40491 6.19238 5.61305 6.35534 5.61305 6.59978V6.68126C5.61305 6.88495 5.44653 7.08865 5.19676 7.08865H4.78048C4.57234 7.08865 4.3642 6.92569 4.3642 6.68126V6.59978C4.3642 6.35534 4.57234 6.19238 4.78048 6.19238ZM4.78048 4.48133H5.19676C5.40491 4.48133 5.61305 4.64429 5.61305 4.88872V4.9702C5.61305 5.1739 5.44653 5.3776 5.19676 5.3776H4.78048C4.57234 5.3776 4.3642 5.21464 4.3642 4.9702V4.88872C4.3642 4.68503 4.57234 4.48133 4.78048 4.48133ZM6.94515 4.48133H7.36143C7.56957 4.48133 7.77771 4.64429 7.77771 4.88872V4.9702C7.77771 5.1739 7.6112 5.3776 7.36143 5.3776H6.94515C6.73701 5.3776 6.52887 5.21464 6.52887 4.9702V4.88872C6.52887 4.68503 6.73701 4.48133 6.94515 4.48133ZM9.10982 4.48133H9.5261C9.73424 4.48133 9.94238 4.64429 9.94238 4.88872V4.9702C9.94238 5.1739 9.77587 5.3776 9.5261 5.3776H9.10982C8.90168 5.3776 8.69354 5.21464 8.69354 4.9702V4.88872C8.69354 4.68503 8.90168 4.48133 9.10982 4.48133ZM10.9415 0.407394V2.56658C10.9415 2.77028 10.7749 2.97397 10.5252 2.97397H10.317C10.1089 2.97397 9.90075 2.81102 9.90075 2.56658V0.407394C9.90075 0.203697 10.0673 0 10.317 0H10.5252C10.7749 0 10.9415 0.162957 10.9415 0.407394ZM4.3642 0.407394V2.56658C4.3642 2.77028 4.19769 2.97397 3.94792 2.97397H3.7814C3.57326 2.97397 3.36512 2.81102 3.36512 2.56658V0.407394C3.36512 0.203697 3.53164 0 3.7814 0H3.98955C4.19769 0 4.3642 0.162957 4.3642 0.407394Z" fill="#211536"/>
</g>
</svg>
