<svg width="25" height="28" viewBox="0 0 25 28" fill="none" xmlns="http://www.w3.org/2000/svg">
<path d="M23.4182 10.0155H22.7403V6.77138C22.7403 6.75116 22.7371 6.73078 22.7347 6.7101C22.7336 6.58141 22.692 6.45492 22.6031 6.35467L17.1601 0.187776C17.1584 0.186193 17.1568 0.185631 17.1557 0.183946C17.1233 0.147994 17.0855 0.118069 17.0454 0.0922284C17.0336 0.084364 17.0217 0.0777762 17.0093 0.070831C16.9747 0.0521913 16.9379 0.0365135 16.9001 0.0252275C16.8898 0.022572 16.8806 0.0183844 16.8704 0.0157289C16.8292 0.006026 16.7865 0 16.7433 0H3.36703C2.75625 0 2.26003 0.492753 2.26003 1.09806V10.0152H1.58227C0.708499 10.0152 0 10.7176 0 11.5846V19.7459C0 20.612 0.708499 21.3152 1.58227 21.3152H2.26003V26.902C2.26003 27.5073 2.75625 28 3.36703 28H21.633C22.2433 28 22.74 27.5073 22.74 26.902V21.3153H23.4179C24.2914 21.3153 25 20.6124 25 19.7459V11.5849C25.0001 10.7177 24.2919 10.0155 23.4182 10.0155ZM3.36703 1.09806H16.1898V6.71582C16.1898 7.01916 16.4378 7.26485 16.7433 7.26485H21.6331V10.0154H3.36703V1.09806ZM17.7738 16.069C16.6862 15.6932 15.9765 15.0964 15.9765 14.1517C15.9765 13.0437 16.9089 12.196 18.4538 12.196C19.1917 12.196 19.736 12.3499 20.1241 12.5235L19.794 13.7083C19.5319 13.5834 19.0657 13.4 18.4246 13.4C17.7835 13.4 17.4727 13.6891 17.4727 14.0264C17.4727 14.4408 17.842 14.6237 18.6868 14.9416C19.8424 15.3657 20.3865 15.9629 20.3865 16.8781C20.3865 17.967 19.5414 18.892 17.7443 18.892C16.9966 18.892 16.2584 18.6995 15.8892 18.4968L16.1901 17.283C16.5885 17.4851 17.2006 17.6878 17.8317 17.6878C18.5122 17.6878 18.8711 17.4084 18.8711 16.9844C18.8714 16.58 18.5606 16.3483 17.7738 16.069ZM15.2685 17.5622V18.7959H11.1785V12.3013H12.6653V17.5622H15.2685ZM6.42942 18.7959H4.73934L6.6334 15.5095L4.80704 12.3011H6.50716L7.07994 13.4863C7.27425 13.8814 7.42006 14.1989 7.57565 14.5657H7.59454C7.75039 14.1512 7.87653 13.8622 8.04118 13.4863L8.59497 12.3011H10.2851L8.43943 15.4706L10.3825 18.7953H8.67307L8.08021 17.6196C7.83776 17.1674 7.68222 16.8298 7.49759 16.454H7.47829C7.34211 16.8298 7.17735 17.1674 6.97316 17.6196L6.42942 18.7959ZM21.6331 26.6047H3.36703V21.3153H21.633V26.6047H21.6331Z" fill="white"/>
</svg>
