<svg width="12" height="16" viewBox="0 0 12 16" fill="none" xmlns="http://www.w3.org/2000/svg">
<path d="M4.78986 10.2708C4.78986 9.54861 4.93956 8.95139 5.23898 8.47917C5.55141 8.00694 6.00053 7.48611 6.58635 6.91667C7.01594 6.5 7.32837 6.15278 7.52364 5.875C7.73193 5.58333 7.83608 5.25694 7.83608 4.89583C7.83608 4.38194 7.64081 3.97917 7.25027 3.6875C6.87274 3.38194 6.36504 3.22917 5.72716 3.22917C5.11531 3.22917 4.56855 3.36805 4.08688 3.64583C3.61823 3.90972 3.22118 4.28472 2.89573 4.77083L0.532959 3.29167C1.07972 2.40278 1.81524 1.71528 2.73952 1.22917C3.67682 0.743055 4.78335 0.5 6.05912 0.5C7.55619 0.5 8.75385 0.840278 9.65209 1.52083C10.5634 2.20139 11.019 3.14583 11.019 4.35417C11.019 4.92361 10.9279 5.42361 10.7456 5.85417C10.5764 6.28472 10.3616 6.65278 10.1012 6.95833C9.85387 7.25 9.52842 7.59028 9.12486 7.97917C8.6432 8.4375 8.29171 8.82639 8.0704 9.14583C7.8491 9.45139 7.73844 9.82639 7.73844 10.2708H4.78986ZM6.27391 15.5C5.74017 15.5 5.29105 15.3194 4.92655 14.9583C4.57506 14.5833 4.39932 14.1319 4.39932 13.6042C4.39932 13.0764 4.57506 12.6389 4.92655 12.2917C5.27803 11.9306 5.72716 11.75 6.27391 11.75C6.82067 11.75 7.26979 11.9306 7.62128 12.2917C7.97277 12.6389 8.14851 13.0764 8.14851 13.6042C8.14851 14.1319 7.96626 14.5833 7.60175 14.9583C7.25027 15.3194 6.80765 15.5 6.27391 15.5Z" fill="white"/>
</svg>
