<svg width="299" height="48" viewBox="0 0 299 48" fill="none" xmlns="http://www.w3.org/2000/svg">
<path d="M0 10C0 7.79086 1.79086 6 4 6H134.429C136.759 6 139.039 5.32147 140.99 4.04725L143.939 2.12154C147.797 -0.398221 152.758 -0.485866 156.703 1.89602L160.639 4.27277C162.511 5.40276 164.656 6 166.842 6H295C297.209 6 299 7.79086 299 10V44C299 46.2091 297.209 48 295 48H3.99999C1.79085 48 0 46.2091 0 44V10Z" fill="#9B63F8"/>
<path d="M0.5 10C0.5 8.067 2.067 6.5 4 6.5H134.429C136.856 6.5 139.231 5.79319 141.264 4.46588L144.212 2.54018C147.91 0.125404 152.664 0.0414109 156.444 2.32405L160.381 4.70081C162.33 5.87788 164.564 6.5 166.842 6.5H295C296.933 6.5 298.5 8.067 298.5 10V44C298.5 45.933 296.933 47.5 295 47.5H3.99999C2.067 47.5 0.5 45.933 0.5 44V10Z" stroke="#9B63F8" stroke-opacity="0.3"/>
</svg>
