<svg width="26" height="32" viewBox="0 0 26 32" fill="none" xmlns="http://www.w3.org/2000/svg">
<path d="M23.2613 5.42616C20.8788 1.97801 17.103 0 12.9026 0C8.70219 0 4.92629 1.97801 2.5438 5.42616C0.173001 8.85688 -0.374424 13.2003 1.07652 17.0376C1.46461 18.0855 2.08152 19.1036 2.90574 20.0577L12.0718 30.8242C12.2791 31.0679 12.5829 31.2083 12.9026 31.2083C13.2223 31.2083 13.526 31.0679 13.7333 30.8242L22.8968 20.0606C23.7247 19.1011 24.3408 18.084 24.7257 17.0445C26.1796 13.2003 25.6321 8.85688 23.2613 5.42616ZM22.6823 16.2803C22.3855 17.0823 21.901 17.8753 21.243 18.638C21.2412 18.6398 21.2393 18.6416 21.2379 18.6438L12.9026 28.4341L4.56216 18.6377C3.90453 17.8756 3.42 17.0828 3.1203 16.2731C1.92036 13.0995 2.37575 9.50835 4.33882 6.66724C6.30805 3.81704 9.42961 2.18239 12.9026 2.18239C16.3755 2.18239 19.4967 3.81698 21.466 6.66724C23.4294 9.50835 23.8851 13.0995 22.6823 16.2803Z" fill="#9B63F8"/>
<path d="M12.9026 6.47437C9.53332 6.47437 6.79187 9.21545 6.79187 12.5851C6.79187 15.9547 9.53296 18.6958 12.9026 18.6958C16.2722 18.6958 19.0133 15.9547 19.0133 12.5851C19.0133 9.21582 16.2719 6.47437 12.9026 6.47437ZM12.9026 16.5134C10.7366 16.5134 8.97426 14.7511 8.97426 12.585C8.97426 10.419 10.7366 8.65669 12.9026 8.65669C15.0687 8.65669 16.8309 10.419 16.8309 12.585C16.8309 14.7511 15.0687 16.5134 12.9026 16.5134Z" fill="#9B63F8"/>
</svg>
