<svg width="20" height="20" viewBox="0 0 20 20" fill="none" xmlns="http://www.w3.org/2000/svg">
<path d="M15.8203 10.0391C14.528 10.0391 13.4766 11.0905 13.4766 12.3829C13.4766 13.6752 14.528 14.7266 15.8203 14.7266H19.1406C19.1539 14.7266 19.1668 14.7253 19.1799 14.7246C19.1929 14.7252 19.2056 14.7266 19.2188 14.7266C19.6502 14.7266 20 14.3768 20 13.9453V7.81252C20 6.77244 19.4888 5.84998 18.7049 5.28166L16.0471 0.921511C15.9387 0.743699 15.7638 0.616512 15.5613 0.568231C15.3587 0.519871 15.1452 0.554442 14.9682 0.664207L13.0082 1.87967L12.1243 0.383817C12.018 0.203973 11.8442 0.0742078 11.6416 0.0234266C11.439 -0.0273545 11.2244 0.00518446 11.0459 0.113622L3.51988 4.68752H2.34375C1.91949 4.68752 1.57313 4.3476 1.56273 3.92581C1.57313 3.50401 1.91949 3.16409 2.34375 3.16409H3.78906C4.22055 3.16409 4.57031 2.81432 4.57031 2.38284C4.57031 1.95135 4.22055 1.60159 3.78906 1.60159H2.34375C1.23836 1.60159 0.309336 2.37088 0.0636719 3.40217C0.0228125 3.49694 0 3.60123 0 3.71096V16.875C0 18.5981 1.40188 20 3.125 20H16.875C18.2223 20 19.4138 19.1418 19.8399 17.8644C19.9764 17.4551 19.7553 17.0126 19.346 16.8761C18.9368 16.7396 18.4942 16.9607 18.3577 17.37C18.1447 18.0085 17.5489 18.4375 16.875 18.4375H3.125C2.26344 18.4375 1.5625 17.7366 1.5625 16.875V6.116C1.80699 6.20272 2.06992 6.25002 2.34375 6.25002H16.875C17.7366 6.25002 18.4375 6.95096 18.4375 7.81252V10.0391H15.8203ZM18.4375 13.1641H15.8203C15.3895 13.1641 15.0391 12.8136 15.0391 12.3828C15.0391 11.952 15.3895 11.6016 15.8203 11.6016H18.4375V13.1641ZM6.52844 4.68756L11.1815 1.85971L12.0134 3.26756C12.0294 3.30604 12.0478 3.34397 12.0704 3.38053C12.0874 3.40791 12.1063 3.43342 12.1259 3.45795L12.8525 4.68756H6.52844ZM14.6674 4.68752L13.8033 3.22518L15.1227 2.40702L16.5128 4.68752H14.6674Z" fill="#9B63F8"/>
<path d="M8.23529 7.05882L11.7647 11.8566H4.70588L8.23529 7.05882Z" fill="#9B63F8"/>
<path d="M7.42021 11.4706H9.05038V16.4706H7.42021V11.4706Z" fill="#9B63F8"/>
</svg>
