<svg width="17" height="17" viewBox="0 0 17 17" fill="none" xmlns="http://www.w3.org/2000/svg">
<path d="M12.3929 0C10.7932 0.0114351 9.31631 0.859588 8.50012 2.23551C7.68393 0.859628 6.20701 0.011475 4.60734 0C2.01941 0.0465375 -0.0419421 2.18033 0.000648268 4.7685C0.000648268 9.35001 8.50012 17 8.50012 17C8.50012 17 16.9996 9.35001 16.9996 4.7685C17.0423 2.18033 14.9809 0.0465375 12.3929 0ZM8.50016 15.0195C5.44035 12.053 1.44557 7.32698 1.44557 4.7685C1.40278 2.97828 2.81735 1.49135 4.60738 1.44501C5.70322 1.45342 6.71383 2.03785 7.26771 2.9835L8.50012 5.01501L9.73253 2.9835C10.2864 2.03785 11.297 1.45342 12.3929 1.44501C14.1829 1.49139 15.5975 2.97828 15.5547 4.7685C15.5547 7.31849 11.56 12.053 8.50016 15.0195Z" fill="#9B63F8"/>
</svg>
