<svg width="20" height="22" viewBox="0 0 20 22" fill="none" xmlns="http://www.w3.org/2000/svg">
<path d="M3.82716 20.6361C4.44444 20.6361 5.06173 20.3989 5.4321 19.9838C5.8642 19.5687 6.11111 19.035 6.11111 18.442C6.11111 17.8491 5.8642 17.2561 5.4321 16.9003C5 16.4852 4.44444 16.248 3.82716 16.248C3.20988 16.248 2.59259 16.4852 2.22222 16.9003C1.79012 17.3154 1.54321 17.8491 1.54321 18.442C1.54321 19.035 1.79012 19.628 2.22222 19.9838C2.59259 20.3989 3.14815 20.6361 3.82716 20.6361ZM7.34568 4.92183L13.5185 8.53908L13.5802 8.47978C14.2593 7.82749 15.2469 7.4124 16.2346 7.4124C17.284 7.4124 18.2099 7.82749 18.8889 8.47978C19.5679 9.13208 20 10.0809 20 11.0297C20 12.0377 19.5679 12.9272 18.8889 13.5795C18.2099 14.2318 17.2222 14.6469 16.2346 14.6469C15.1852 14.6469 14.2593 14.2318 13.5802 13.5795L13.5185 13.5202L7.34568 17.1375C7.46914 17.5526 7.59259 17.9677 7.59259 18.3827C7.59259 19.3908 7.16049 20.2803 6.48148 20.9326C5.80247 21.5849 4.81481 22 3.82716 22C2.83951 22 1.85185 21.5849 1.17284 20.9326C0.432099 20.3396 0 19.4501 0 18.442C0 17.434 0.432099 16.5445 1.11111 15.8922C1.79012 15.2399 2.77778 14.8248 3.76543 14.8248C4.81481 14.8248 5.74074 15.2399 6.41975 15.8922L6.48148 15.9515L12.6543 12.3342C12.5309 11.9191 12.4074 11.504 12.4074 11.089C12.4074 10.6739 12.4691 10.1995 12.6543 9.84367L6.48148 6.22642L6.41975 6.28572C5.74074 6.93801 4.75309 7.3531 3.76543 7.3531C2.71605 7.3531 1.79012 6.93801 1.11111 6.28572C0.432099 5.57412 0 4.68464 0 3.67655C0 2.66846 0.432099 1.77898 1.11111 1.12668C1.79012 0.415094 2.77778 0 3.82716 0C4.87654 0 5.80247 0.415094 6.48148 1.06739C7.16049 1.71968 7.59259 2.66846 7.59259 3.61725C7.59259 4.09164 7.53086 4.50674 7.34568 4.92183ZM17.9012 9.48787C17.4691 9.07278 16.9136 8.83558 16.2963 8.83558C15.679 8.83558 15.0617 9.07278 14.6914 9.48787C14.2593 9.90297 14.0123 10.4367 14.0123 11.0297C14.0123 11.6226 14.2593 12.2156 14.6914 12.5714C15.1235 12.9865 15.679 13.2237 16.2963 13.2237C16.9136 13.2237 17.5309 12.9865 17.9012 12.5714C18.3333 12.1563 18.5802 11.6226 18.5802 11.0297C18.5802 10.4367 18.3333 9.90297 17.9012 9.48787ZM5.4321 2.07547C5 1.71968 4.44444 1.48248 3.82716 1.48248C3.20988 1.48248 2.59259 1.71968 2.22222 2.13477C1.79012 2.49057 1.54321 3.02426 1.54321 3.67655C1.54321 4.32884 1.79012 4.86253 2.22222 5.21833C2.65432 5.63342 3.20988 5.87062 3.82716 5.87062C4.44444 5.87062 5.06173 5.63342 5.4321 5.21833C5.8642 4.80324 6.11111 4.26954 6.11111 3.67655C6.11111 3.08356 5.80247 2.49057 5.4321 2.07547Z" fill="white"/>
</svg>
