<svg width="123" height="123" viewBox="0 0 123 123" fill="none" xmlns="http://www.w3.org/2000/svg">
<path d="M45.7627 0H0V45.7627H45.7627V0ZM38.1356 38.1356H7.62712V7.62712H38.1356V38.1356Z" fill="#9B63F8"/>
<path d="M15.2542 15.2542H30.5085V30.5085H15.2542V15.2542Z" fill="#9B63F8"/>
<path d="M0 122.034H45.7627V76.2712H0V122.034ZM7.62712 83.8983H38.1356V114.407H7.62712V83.8983Z" fill="#9B63F8"/>
<path d="M15.2542 91.5254H30.5085V106.78H15.2542V91.5254Z" fill="#9B63F8"/>
<path d="M76.2712 0V45.7627H122.034V0H76.2712ZM114.407 38.1356H83.8983V7.62712H114.407V38.1356Z" fill="#9B63F8"/>
<path d="M91.5254 15.2542H106.78V30.5085H91.5254V15.2542Z" fill="#9B63F8"/>
<path d="M15.2542 53.3898H0V68.6441H22.8814V61.017H15.2542V53.3898Z" fill="#9B63F8"/>
<path d="M53.3898 68.6441H68.6441V83.8983H53.3898V68.6441Z" fill="#9B63F8"/>
<path d="M22.8814 53.3898H38.1356V61.017H22.8814V53.3898Z" fill="#9B63F8"/>
<path d="M68.6441 91.5254H53.3898V99.1525H61.017V106.78H68.6441V91.5254Z" fill="#9B63F8"/>
<path d="M45.7627 53.3898V61.017H38.1356V68.6441H53.3898V53.3898H45.7627Z" fill="#9B63F8"/>
<path d="M61.017 30.5085H68.6441V45.7627H61.017V30.5085Z" fill="#9B63F8"/>
<path d="M68.6441 61.017V68.6441H83.8983V53.3898H61.017V61.017H68.6441Z" fill="#9B63F8"/>
<path d="M53.3898 45.7627H61.017V53.3898H53.3898V45.7627Z" fill="#9B63F8"/>
<path d="M68.6441 106.78H83.8983V122.034H68.6441V106.78Z" fill="#9B63F8"/>
<path d="M53.3898 106.78H61.017V122.034H53.3898V106.78Z" fill="#9B63F8"/>
<path d="M68.6441 83.8983H76.2712V91.5254H68.6441V83.8983Z" fill="#9B63F8"/>
<path d="M68.6441 22.8814V7.62712H61.017V0H53.3898V30.5085H61.017V22.8814H68.6441Z" fill="#9B63F8"/>
<path d="M91.5254 106.78H99.1525V122.034H91.5254V106.78Z" fill="#9B63F8"/>
<path d="M91.5254 91.5254H106.78V99.1525H91.5254V91.5254Z" fill="#9B63F8"/>
<path d="M83.8983 99.1525H91.5254V106.78H83.8983V99.1525Z" fill="#9B63F8"/>
<path d="M76.2712 91.5254H83.8983V99.1525H76.2712V91.5254Z" fill="#9B63F8"/>
<path d="M106.78 76.2712V83.8983H114.407V91.5254H122.034V76.2712H106.78Z" fill="#9B63F8"/>
<path d="M114.407 99.1525H106.78V122.034H122.034V106.78H114.407V99.1525Z" fill="#9B63F8"/>
<path d="M76.2712 76.2712V83.8983H99.1525V68.6441H83.8983V76.2712H76.2712Z" fill="#9B63F8"/>
<path d="M91.5254 53.3898V61.017H106.78V68.6441H122.034V53.3898H91.5254Z" fill="#9B63F8"/>
</svg>
