<svg width="22" height="22" viewBox="0 0 22 22" fill="none" xmlns="http://www.w3.org/2000/svg">
<path d="M21.3685 2.39329C20.9371 2.30072 20.5127 2.57555 20.4203 3.00677L19.84 5.71491C17.9923 2.56284 14.601 0.584839 10.884 0.584839C5.15969 0.584839 0.502686 5.24178 0.502686 10.9661C0.502686 11.4071 0.860185 11.7647 1.30124 11.7647C1.74224 11.7647 2.0998 11.4071 2.0998 10.9661C2.0998 6.1225 6.04034 2.18196 10.884 2.18196C14.0417 2.18196 16.922 3.86871 18.4814 6.55442L15.8191 5.98387C15.3878 5.89143 14.9633 6.1662 14.871 6.59742C14.7786 7.02864 15.0533 7.45322 15.4846 7.5456L20.0546 8.52495C20.1322 8.54162 20.2111 8.54642 20.2888 8.5399C20.4183 8.52898 20.5445 8.48649 20.6557 8.41456C20.8336 8.2995 20.9584 8.11852 21.0028 7.91146L21.9822 3.3414C22.0745 2.91024 21.7997 2.48579 21.3685 2.39329Z" fill="#9B63F8"/>
<path d="M20.5649 9.91946C20.1242 9.93402 19.7786 10.3031 19.7931 10.7439C19.8706 13.089 19.0302 15.3237 17.4267 17.0368C15.8233 18.7497 13.6488 19.7358 11.3038 19.8132C11.206 19.8164 11.1088 19.818 11.0114 19.818C7.95159 19.8179 5.13286 18.2287 3.54098 15.654L6.31658 16.3983C6.74257 16.5124 7.1805 16.2598 7.29472 15.8337C7.40895 15.4077 7.15622 14.9699 6.73024 14.8555L2.21588 13.6451C2.01133 13.5904 1.79329 13.619 1.60994 13.7248C1.42646 13.8306 1.29262 14.0051 1.23774 14.2096L0.0274467 18.7241C-0.0867793 19.1501 0.165949 19.588 0.591933 19.7022C0.661248 19.7208 0.730754 19.7298 0.799239 19.7298C1.15176 19.7298 1.47444 19.4944 1.57007 19.1378L2.25038 16.6005C4.1429 19.5805 7.43712 21.4153 11.011 21.4151C11.1258 21.4151 11.2413 21.4133 11.3565 21.4094C14.1279 21.3178 16.6978 20.1526 18.5928 18.1282C20.4878 16.1038 21.481 13.4626 21.3894 10.6912C21.3749 10.2505 21.0056 9.9038 20.5649 9.91946Z" fill="#9B63F8"/>
</svg>
