<svg width="13" height="18" viewBox="0 0 13 18" fill="none" xmlns="http://www.w3.org/2000/svg">
<path d="M6.5 0C2.9159 0 0 2.8388 0 6.32813C0 7.50706 0.335436 8.65758 0.97027 9.65574L6.13001 17.7507C6.22884 17.9058 6.40297 18 6.59024 18H6.59454C6.78344 17.9986 6.95793 17.9014 7.05496 17.7436L12.0832 9.57023C12.683 8.59317 13 7.47207 13 6.32813C13 2.8388 10.0841 0 6.5 0ZM11.1535 9.02876L6.58204 16.4597L1.89103 9.10006C1.36262 8.26924 1.07611 7.31074 1.07611 6.32813C1.07611 3.42035 3.51325 1.04766 6.5 1.04766C9.48675 1.04766 11.9203 3.42035 11.9203 6.32813C11.9203 7.2816 11.6527 8.21559 11.1535 9.02876Z" fill="white"/>
<path d="M6.5 3.16406C4.70795 3.16406 3.25 4.58346 3.25 6.32812C3.25 8.06164 4.68422 9.49219 6.5 9.49219C8.33816 9.49219 9.75 8.04259 9.75 6.32812C9.75 4.58346 8.29205 3.16406 6.5 3.16406ZM6.5 8.44453C5.29905 8.44453 4.32611 7.49415 4.32611 6.32812C4.32611 5.16502 5.3053 4.21172 6.5 4.21172C7.6947 4.21172 8.67028 5.16502 8.67028 6.32812C8.67028 7.47714 7.71998 8.44453 6.5 8.44453Z" fill="white"/>
</svg>
