<svg width="16" height="16" viewBox="0 0 16 16" fill="none" xmlns="http://www.w3.org/2000/svg">
<path d="M15.2727 0H9.45444C9.05278 0 8.72715 0.325654 8.72715 0.727346C8.72715 1.12904 9.05278 1.45469 9.45444 1.45469H13.5169L6.03109 8.94111C5.74712 9.2251 5.74712 9.68564 6.03109 9.9697C6.17306 10.1117 6.35919 10.1827 6.54531 10.1827C6.73144 10.1827 6.9176 10.1117 7.05954 9.96967L14.5454 2.48328V6.54605C14.5454 6.94774 14.8711 7.2734 15.2727 7.2734C15.6744 7.2734 16 6.94774 16 6.54605V0.727346C16 0.325654 15.6743 0 15.2727 0Z" fill="#9B63F8"/>
<path d="M12.3636 7.27215C11.962 7.27215 11.6364 7.5978 11.6364 7.99948V14.5454H1.45453V4.36287H8C8.40166 4.36287 8.72729 4.03722 8.72729 3.63554C8.72729 3.23386 8.40166 2.90825 8 2.90825H0.727282C0.325625 2.90825 0 3.23389 0 3.63557V15.2727C0 15.6744 0.325625 16 0.727282 16H12.3637C12.7653 16 13.0909 15.6744 13.0909 15.2727V7.99948C13.0909 7.5978 12.7653 7.27215 12.3636 7.27215Z" fill="#9B63F8"/>
</svg>
