<svg width="20" height="21" viewBox="0 0 20 21" fill="none" xmlns="http://www.w3.org/2000/svg">
<path d="M19.1655 0.991211H4.16539C3.70516 0.991211 3.33203 1.35839 3.33203 1.81134V7.5523C3.33203 8.00525 3.70512 8.37243 4.16535 8.37243C4.62559 8.37243 4.99868 8.00525 4.99868 7.5523V2.63147H18.3321V19.0343H4.99872V14.1134C4.99872 13.6605 4.62563 13.2933 4.16539 13.2933C3.70516 13.2933 3.33207 13.6605 3.33207 14.1134V19.8544C3.33207 20.3074 3.70516 20.6745 4.16539 20.6745H19.1655C19.6257 20.6745 19.9988 20.3074 19.9988 19.8544V1.81134C19.9988 1.35839 19.6257 0.991211 19.1655 0.991211Z" fill="white"/>
<path d="M7.74405 13.5332C7.41862 13.8535 7.41862 14.3728 7.74405 14.6931C8.06948 15.0133 8.59713 15.0133 8.92256 14.6931L12.2559 11.4125C12.256 11.4124 12.2561 11.4122 12.2563 11.4121C12.2755 11.3931 12.2938 11.3732 12.3111 11.3524C12.319 11.3429 12.3259 11.3329 12.3333 11.3232C12.3422 11.3115 12.3513 11.3001 12.3596 11.288C12.3675 11.2763 12.3744 11.2642 12.3817 11.2522C12.3883 11.2412 12.3953 11.2304 12.4015 11.2191C12.4081 11.2069 12.4138 11.1944 12.4197 11.1819C12.4254 11.1701 12.4314 11.1585 12.4365 11.1464C12.4416 11.1343 12.4457 11.1219 12.4502 11.1096C12.4549 11.0967 12.4599 11.0839 12.464 11.0707C12.4678 11.0584 12.4706 11.0458 12.4737 11.0334C12.4772 11.0199 12.481 11.0066 12.4838 10.9929C12.4867 10.9784 12.4885 10.9639 12.4906 10.9494C12.4923 10.9375 12.4946 10.9257 12.4958 10.9135C12.5012 10.8597 12.5012 10.8055 12.4958 10.7517C12.4946 10.7395 12.4923 10.7278 12.4906 10.7158C12.4885 10.7013 12.4867 10.6867 12.4838 10.6723C12.481 10.6586 12.4772 10.6453 12.4737 10.6318C12.4706 10.6193 12.4678 10.6068 12.464 10.5945C12.4599 10.5813 12.4549 10.5685 12.4502 10.5556C12.4457 10.5433 12.4416 10.5309 12.4365 10.5188C12.4314 10.5067 12.4254 10.4951 12.4197 10.4833C12.4138 10.4709 12.4081 10.4583 12.4015 10.4461C12.3953 10.4348 12.3883 10.424 12.3817 10.413C12.3744 10.401 12.3675 10.3889 12.3596 10.3773C12.3513 10.3651 12.3422 10.3537 12.3333 10.342C12.3259 10.3323 12.319 10.3223 12.3111 10.3128C12.2938 10.292 12.2755 10.2721 12.2563 10.2531C12.2561 10.253 12.256 10.2528 12.2559 10.2527L8.92256 6.97214C8.59713 6.65186 8.06948 6.65186 7.74405 6.97214C7.41862 7.29242 7.41862 7.81172 7.74405 8.132L9.65479 10.0125H0.833319C0.373085 10.0124 0 10.3796 0 10.8325C0 11.2855 0.373085 11.6527 0.833319 11.6527H9.65479L7.74405 13.5332Z" fill="white"/>
</svg>
