<svg width="96" height="130" viewBox="0 0 96 130" fill="none" xmlns="http://www.w3.org/2000/svg">
<path d="M36 0H0V36H36V0ZM30 30H6V6H30V30Z" fill="white"/>
<path d="M12 12H24V24H12V12Z" fill="white"/>
<path d="M0 96H36V60H0V96ZM6 66H30V90H6V66Z" fill="white"/>
<path d="M12 72H24V84H12V72Z" fill="white"/>
<path d="M60 0V36H96V0H60ZM90 30H66V6H90V30Z" fill="white"/>
<path d="M72 12H84V24H72V12Z" fill="white"/>
<path d="M12 42H0V54H18V48H12V42Z" fill="white"/>
<path d="M42 54H54V66H42V54Z" fill="white"/>
<path d="M18 42H30V48H18V42Z" fill="white"/>
<path d="M54 72H42V78H48V84H54V72Z" fill="white"/>
<path d="M36 42V48H30V54H42V42H36Z" fill="white"/>
<path d="M48 24H54V36H48V24Z" fill="white"/>
<path d="M54 48V54H66V42H48V48H54Z" fill="white"/>
<path d="M42 36H48V42H42V36Z" fill="white"/>
<path d="M54 84H66V96H54V84Z" fill="white"/>
<path d="M42 84H48V96H42V84Z" fill="white"/>
<path d="M54 66H60V72H54V66Z" fill="white"/>
<path d="M54 18V6H48V0H42V24H48V18H54Z" fill="white"/>
<path d="M72 84H78V96H72V84Z" fill="white"/>
<path d="M72 72H84V78H72V72Z" fill="white"/>
<path d="M66 78H72V84H66V78Z" fill="white"/>
<path d="M60 72H66V78H60V72Z" fill="white"/>
<path d="M84 60V66H90V72H96V60H84Z" fill="white"/>
<path d="M90 78H84V96H96V84H90V78Z" fill="white"/>
<path d="M60 60V66H78V54H66V60H60Z" fill="white"/>
<path d="M72 42V48H84V54H96V42H72Z" fill="white"/>
<path d="M25.0641 113.2V123H24.0561V114.096H21.7461V113.2H25.0641ZM37.7628 122.104V123H30.8888V122.286L34.9628 118.296C35.4761 117.792 35.8214 117.358 35.9988 116.994C36.1854 116.621 36.2788 116.247 36.2788 115.874C36.2788 115.295 36.0781 114.847 35.6768 114.53C35.2848 114.203 34.7201 114.04 33.9828 114.04C32.8348 114.04 31.9434 114.404 31.3088 115.132L30.5948 114.516C30.9774 114.068 31.4628 113.723 32.0508 113.48C32.6481 113.237 33.3201 113.116 34.0668 113.116C35.0654 113.116 35.8541 113.354 36.4328 113.83C37.0208 114.297 37.3148 114.941 37.3148 115.762C37.3148 116.266 37.2028 116.751 36.9788 117.218C36.7548 117.685 36.3301 118.221 35.7048 118.828L32.3728 122.104H37.7628ZM46.0239 117.4C47.0505 117.456 47.8299 117.736 48.3619 118.24C48.9032 118.735 49.1739 119.383 49.1739 120.186C49.1739 120.746 49.0385 121.245 48.7679 121.684C48.4972 122.113 48.0959 122.454 47.5639 122.706C47.0319 122.958 46.3832 123.084 45.6179 123.084C44.9085 123.084 44.2365 122.972 43.6019 122.748C42.9765 122.515 42.4725 122.207 42.0899 121.824L42.5799 121.026C42.9065 121.362 43.3405 121.637 43.8819 121.852C44.4232 122.057 45.0019 122.16 45.6179 122.16C46.4205 122.16 47.0412 121.987 47.4799 121.642C47.9185 121.287 48.1379 120.802 48.1379 120.186C48.1379 119.579 47.9185 119.103 47.4799 118.758C47.0412 118.413 46.3785 118.24 45.4919 118.24H44.7919V117.498L47.5079 114.096H42.4959V113.2H48.7959V113.914L46.0239 117.4ZM62.5883 120.424H60.6283V123H59.6203V120.424H54.0903V119.696L59.2843 113.2H60.4043L55.3923 119.528H59.6483V117.26H60.6283V119.528H62.5883V120.424ZM69.7542 117.218C71.1729 117.218 72.2042 117.475 72.8482 117.988C73.5015 118.492 73.8282 119.201 73.8282 120.116C73.8282 120.685 73.6929 121.194 73.4222 121.642C73.1609 122.09 72.7642 122.445 72.2322 122.706C71.7002 122.958 71.0469 123.084 70.2722 123.084C69.5722 123.084 68.9049 122.972 68.2702 122.748C67.6449 122.515 67.1409 122.207 66.7582 121.824L67.2482 121.026C67.5749 121.362 68.0042 121.637 68.5362 121.852C69.0682 122.057 69.6422 122.16 70.2582 122.16C71.0702 122.16 71.6955 121.978 72.1342 121.614C72.5822 121.25 72.8062 120.765 72.8062 120.158C72.8062 119.486 72.5542 118.977 72.0502 118.632C71.5555 118.287 70.7155 118.114 69.5302 118.114H67.4442L67.9482 113.2H73.3102V114.096H68.8302L68.4942 117.218H69.7542Z" fill="white"/>
</svg>
