<svg width="12" height="15" viewBox="0 0 12 15" fill="none" xmlns="http://www.w3.org/2000/svg">
<path d="M10.1953 5.50781H3.98329V3.09873C3.98329 2.03625 4.87699 1.17188 5.97548 1.17188C7.07397 1.17188 7.96767 2.03625 7.96767 3.09873V4.21875H9.13954V3.09873C9.13954 1.39008 7.72014 0 5.97548 0C4.23082 0 2.81142 1.39008 2.81142 3.09873V5.50781H1.75781C0.788555 5.50781 0 6.29637 0 7.26562V13.2422C0 14.2114 0.788555 15 1.75781 15H10.1953C11.1646 15 11.9531 14.2114 11.9531 13.2422V7.26562C11.9531 6.29637 11.1646 5.50781 10.1953 5.50781ZM10.7812 13.2422C10.7812 13.5653 10.5184 13.8281 10.1953 13.8281H1.75781C1.43473 13.8281 1.17188 13.5653 1.17188 13.2422V7.26562C1.17188 6.94254 1.43473 6.67969 1.75781 6.67969H10.1953C10.5184 6.67969 10.7812 6.94254 10.7812 7.26562V13.2422Z" fill="#9B63F8"/>
<path d="M5.97461 8.37891C5.37593 8.37891 4.89062 8.86421 4.89062 9.46289C4.89062 9.84516 5.08867 10.181 5.38759 10.374V11.6602C5.38759 11.9837 5.64991 12.2461 5.97353 12.2461C6.29711 12.2461 6.55946 11.9837 6.55946 11.6602V10.3753C6.85958 10.1826 7.05859 9.84609 7.05859 9.46289C7.05859 8.86421 6.57329 8.37891 5.97461 8.37891Z" fill="#9B63F8"/>
</svg>
