<svg width="27" height="33" viewBox="0 0 27 33" fill="none" xmlns="http://www.w3.org/2000/svg">
<path d="M17.8021 0.255043C17.6506 0.0956726 17.4429 0 17.2277 0H4.34081C1.96286 0 0 1.95298 0 4.32818V28.6716C0 31.047 1.96286 33 4.34081 33H21.8316C24.2096 33 26.1724 31.047 26.1724 28.6716V9.34193C26.1724 9.13472 26.0766 8.93557 25.941 8.784L17.8021 0.255043ZM18.0334 2.81378L23.4834 8.52896H19.9406C18.8873 8.52896 18.0334 7.68402 18.0334 6.63187V2.81378ZM21.8316 31.4058H4.34081C2.84876 31.4058 1.59589 30.1704 1.59589 28.6716V4.32818C1.59589 2.8377 2.8407 1.59421 4.34081 1.59421H16.4375V6.63187C16.4375 8.56874 18.0017 10.1232 19.9406 10.1232H24.5765V28.6716C24.5765 30.1704 23.3317 31.4058 21.8316 31.4058Z" fill="#BDB9C3"/>
<path d="M19.6531 13.6125H13.0861H6.51902C6.08022 13.6125 5.72107 13.971 5.72107 14.4096C5.72107 14.8479 6.08022 15.2067 6.51902 15.2067H19.6612C20.1 15.2067 20.4591 14.8479 20.4591 14.4096C20.4591 13.971 20.1 13.6125 19.6531 13.6125Z" fill="#BDB9C3"/>
<path d="M19.6531 17.325H13.0861H6.51902C6.08022 17.325 5.72107 17.6835 5.72107 18.1221C5.72107 18.5604 6.08022 18.9192 6.51902 18.9192H19.6612C20.1 18.9192 20.4591 18.5604 20.4591 18.1221C20.4591 17.6835 20.1 17.325 19.6531 17.325Z" fill="#BDB9C3"/>
<path d="M19.6612 21.0375H13.0941H6.52708C6.08829 21.0375 5.72914 21.396 5.72914 21.8346C5.72914 22.2729 6.08829 22.6317 6.52708 22.6317H19.6692C20.108 22.6317 20.4672 22.2729 20.4672 21.8346C20.4672 21.396 20.108 21.0375 19.6612 21.0375Z" fill="#BDB9C3"/>
<path d="M19.6531 24.7221H13.0861H6.51902C6.08022 24.7221 5.72107 25.0806 5.72107 25.5192C5.72107 25.9575 6.08022 26.3163 6.51902 26.3163H19.6612C20.1 26.3163 20.4591 25.9575 20.4591 25.5192C20.4591 25.0806 20.1 24.7221 19.6531 24.7221Z" fill="#BDB9C3"/>
</svg>
