<svg width="36" height="35" viewBox="0 0 36 35" fill="none" xmlns="http://www.w3.org/2000/svg">
<path d="M18.7751 27.8968C18.2984 27.6091 17.7016 27.6091 17.2249 27.8968L8.02863 33.4473C7.64997 33.6758 7.18286 33.3364 7.28334 32.9056L9.7238 22.4444C9.8503 21.9022 9.66603 21.3345 9.24518 20.9699L1.11878 13.93C0.784481 13.6404 0.963186 13.0912 1.4039 13.0538L12.1024 12.1462C12.6568 12.0992 13.1396 11.7491 13.3567 11.2369L17.5396 1.36748C17.7119 0.960973 18.2881 0.960969 18.4604 1.36749L22.6433 11.2369L23.1037 11.0418L22.6433 11.2369C22.8604 11.7491 23.3432 12.0992 23.8976 12.1462L34.5961 13.0538C35.0368 13.0912 35.2155 13.6404 34.8812 13.93L26.7548 20.9699C26.334 21.3345 26.1497 21.9022 26.2762 22.4444L28.7167 32.9056C28.8171 33.3364 28.35 33.6758 27.9714 33.4473L18.7751 27.8968Z" stroke="#FF2998"/>
</svg>
