<svg width="24" height="21" viewBox="0 0 24 21" fill="none" xmlns="http://www.w3.org/2000/svg">
<path d="M19.3417 15.371C19.0986 14.7651 18.976 14.1264 18.976 13.4735V8.75899C18.976 5.48862 16.7994 2.74621 13.8294 1.82097C13.6529 0.78935 12.7582 0 11.6769 0C10.5957 0 9.70094 0.78935 9.52443 1.82097C6.55444 2.74621 4.37782 5.48862 4.37782 8.75899V13.4735C4.37782 14.1264 4.25521 14.7651 4.01215 15.371L2.96999 17.977C2.88015 18.2022 2.90797 18.456 3.04339 18.657C3.17954 18.858 3.40547 18.9778 3.64785 18.9778H9.19643C9.71395 19.8574 10.637 20.4376 11.6769 20.4376C12.7168 20.4376 13.6399 19.8574 14.1574 18.9778H19.7059C19.9483 18.9778 20.1743 18.858 20.3104 18.657C20.4458 18.456 20.4736 18.2022 20.3838 17.977C20.3839 17.977 19.3417 15.371 19.3417 15.371ZM4.72562 17.5179L5.36786 15.9127C5.67937 15.1343 5.83759 14.3132 5.83759 13.4734V8.75894C5.83759 5.53847 8.45714 2.91961 11.6769 2.91961C14.8967 2.91961 17.5162 5.53847 17.5162 8.75894V13.4734C17.5162 14.3131 17.6744 15.1343 17.9859 15.9127L18.6282 17.5179H4.72562Z" fill="#211536"/>
<path d="M1.375 4.72266C0.475423 6.40774 0 8.30806 0 10.2184C0 12.1287 0.475423 14.029 1.375 15.7141L2.66233 15.027C1.8647 13.5315 1.45983 11.9135 1.45983 10.2184C1.45983 8.52335 1.8647 6.90529 2.66233 5.40979L1.375 4.72266Z" fill="#211536"/>
<path d="M21.9822 4.72266L20.6948 5.40979C21.4925 6.90524 21.8973 8.5233 21.8973 10.2184C21.8973 11.9134 21.4925 13.5315 20.6948 15.027L21.9822 15.7141C22.8817 14.029 23.3572 12.1287 23.3572 10.2184C23.3572 8.30811 22.8817 6.40774 21.9822 4.72266Z" fill="#211536"/>
</svg>
