<svg width="17" height="22" viewBox="0 0 17 22" fill="none" xmlns="http://www.w3.org/2000/svg">
<path d="M8.53216 0C9.32594 0 10.1197 0.135385 10.8473 0.473846C11.575 0.812308 12.2364 1.21846 12.8318 1.82769C13.361 2.36923 13.824 3.04615 14.1547 3.85846C14.3532 4.53538 14.5516 5.34769 14.5516 6.16C14.5516 6.97231 14.4193 7.78462 14.0886 8.52923C13.7578 9.27385 13.361 9.95077 12.7656 10.56C12.2364 11.1015 11.575 11.5754 10.7812 11.9138C10.0536 12.1846 9.32594 12.3877 8.46601 12.3877C7.67224 12.3877 6.87847 12.2523 6.15084 11.9138C5.42321 11.5754 4.76173 11.1692 4.1664 10.56C3.63722 10.0185 3.17419 9.34154 2.84345 8.52923C2.645 7.78462 2.51271 6.97231 2.51271 6.16C2.51271 5.34769 2.645 4.53538 2.97574 3.79077C3.30648 3.04615 3.70337 2.36923 4.2987 1.76C4.82788 1.21846 5.48936 0.744615 6.28313 0.406154C6.94461 0.135385 7.67224 0 8.53216 0ZM10.1859 2.03077C9.65668 1.82769 9.12749 1.69231 8.53216 1.69231C7.93683 1.69231 7.3415 1.82769 6.87847 2.03077C6.28313 2.23385 5.8201 2.57231 5.42321 2.97846C4.96018 3.38462 4.62944 3.85846 4.43099 4.4C4.23255 4.94154 4.10026 5.55077 4.10026 6.16C4.10026 6.76923 4.23255 7.37846 4.43099 7.85231C4.62944 8.39385 4.96018 8.86769 5.35707 9.34154C5.75395 9.74769 6.21699 10.0862 6.81232 10.2892C7.3415 10.4923 7.87068 10.6277 8.46601 10.6277C9.06135 10.6277 9.65668 10.4923 10.1197 10.2892C10.6489 10.0862 11.1119 9.74769 11.575 9.34154C11.9719 8.93538 12.3026 8.39385 12.501 7.85231C12.6995 7.31077 12.8318 6.76923 12.8318 6.16C12.8318 5.55077 12.6995 4.94154 12.501 4.46769C12.3026 3.92615 11.9719 3.45231 11.575 2.97846C11.1781 2.57231 10.715 2.23385 10.1859 2.03077ZM10.9135 12.6585C11.575 12.8615 12.1703 13.0646 12.6995 13.4031C13.2948 13.7415 13.824 14.08 14.287 14.5538C15.0147 15.2308 15.61 15.9077 16.0069 16.6523C16.4038 17.3969 16.7345 18.1415 16.9329 18.9538C16.9991 19.2923 16.9991 19.6985 16.9329 20.0369C16.8668 20.3754 16.7345 20.7138 16.4699 21.0523C16.2715 21.3231 15.9407 21.5938 15.6761 21.7292C15.3454 21.8646 15.0147 22 14.6178 22H2.38041C1.98352 22 1.65278 21.9323 1.32205 21.7292C0.991306 21.5938 0.726714 21.3231 0.528271 21.0523C0.329827 20.7815 0.131384 20.4431 0.0652359 20.0369C-0.000911964 19.6985 -0.000911964 19.2923 0.0652359 18.9538C0.263679 18.1415 0.528271 17.3292 0.991306 16.6523C1.38819 15.9077 1.98352 15.2308 2.71115 14.5538C3.17419 14.08 3.70337 13.7415 4.2987 13.4031C4.89403 13.0646 5.48936 12.8615 6.08469 12.6585L6.74617 12.4554L7.07691 13.0646L8.53216 16.0431L9.98742 13.0646L10.3182 12.4554L10.9135 12.6585ZM11.9057 14.8923C11.6411 14.7569 11.3765 14.6215 11.0458 14.4862L9.19364 18.2769L8.46601 19.7662L7.80454 18.2769L5.9524 14.4862C5.6878 14.6215 5.35706 14.7569 5.09247 14.8923C4.62944 15.1631 4.1664 15.5015 3.76952 15.84C3.17419 16.3815 2.71115 16.9231 2.38041 17.5323C2.04967 18.1415 1.78508 18.7508 1.65278 19.4277C1.65278 19.5631 1.58664 19.6985 1.65278 19.7662C1.65278 19.9015 1.71893 19.9692 1.78508 20.1046C1.85123 20.1723 1.91738 20.3077 2.04967 20.3077C2.11582 20.3754 2.24812 20.3754 2.38041 20.3754H14.6178C14.7501 20.3754 14.8824 20.3754 14.9485 20.3077C15.0147 20.24 15.1469 20.1723 15.2131 20.1046C15.2792 20.0369 15.3454 19.9015 15.3454 19.7662C15.3454 19.6308 15.3454 19.5631 15.3454 19.4277C15.1469 18.7508 14.9485 18.1415 14.6178 17.5323C14.287 16.9231 13.824 16.3815 13.2287 15.84C12.8318 15.5015 12.3687 15.1631 11.9057 14.8923Z" fill="#9B63F8"/>
</svg>
