<svg width="24" height="24" viewBox="0 0 24 24" fill="none" xmlns="http://www.w3.org/2000/svg">
<path d="M16.3847 13.3602L22.7057 19.3282C22.7729 19.396 22.9074 19.5316 22.9746 19.5994C23.0419 19.7351 23.1091 19.8029 23.1764 19.9385C23.2436 20.0742 23.2436 20.142 23.3109 20.2776C23.3109 20.4133 23.3781 20.4811 23.3781 20.6167C23.3781 20.7524 23.3781 20.888 23.3781 20.9558C23.3781 21.0914 23.3109 21.2271 23.2436 21.2949C23.1764 21.4305 23.1091 21.4984 23.0419 21.634C22.9746 21.7696 22.9074 21.8374 22.7729 21.9053L21.8987 22.7869C21.8315 22.8547 21.697 22.9225 21.6298 22.9904C21.4953 23.0582 21.428 23.126 21.2935 23.1938C21.1591 23.2616 21.0918 23.2616 20.9573 23.2616C20.8228 23.2616 20.6884 23.2616 20.6211 23.2616C20.4866 23.2616 20.3521 23.2616 20.2849 23.1938C20.1504 23.1938 20.0159 23.126 19.9487 23.0582C19.8142 22.9904 19.7469 22.9225 19.6125 22.8547C19.478 22.7869 19.4107 22.7191 19.3435 22.5834L13.426 16.2085C12.8208 16.5476 12.2156 16.8189 11.6104 17.0224C10.7363 17.2936 9.86208 17.4293 8.92067 17.4293C7.77752 17.4293 6.63437 17.2258 5.55847 16.7511C4.54981 16.3442 3.54115 15.666 2.73422 14.8522C1.86005 13.9705 1.25486 13.0211 0.851394 12.0038C0.380687 10.9187 0.178955 9.76581 0.178955 8.61291C0.178955 7.46 0.380687 6.30709 0.851394 5.222C1.25486 4.20473 1.9273 3.18745 2.73422 2.37364C3.47391 1.76327 4.41532 1.08509 5.49123 0.678182C6.56713 0.203454 7.71028 0 8.85342 0C11.0725 0 13.3588 0.881636 15.0399 2.57709C15.8468 3.45873 16.5192 4.40818 16.9227 5.42545C17.3934 6.51054 17.5951 7.66345 17.5951 8.81636C17.5951 10.444 17.1917 12.0038 16.3847 13.3602ZM21.5625 20.5489L14.2329 13.6314L14.6364 13.0211C15.5106 11.8004 15.9813 10.3084 15.9813 8.81636C15.9813 7.86691 15.7795 6.91745 15.4433 6.03582C15.1071 5.222 14.5692 4.40818 13.8967 3.73C12.4846 2.30582 10.669 1.62764 8.85342 1.62764C7.91201 1.62764 6.97059 1.83109 6.09642 2.17018C5.22225 2.57709 4.48257 3.05182 3.81013 3.79782C3.13769 4.476 2.59974 5.28982 2.26352 6.10363C1.9273 6.98527 1.72557 7.93472 1.72557 8.88418C1.72557 9.83363 1.9273 10.7831 2.26352 11.6647C2.59974 12.5464 3.13769 13.2924 3.81013 13.9705C4.48257 14.6487 5.28949 15.1913 6.09642 15.5304C6.97059 15.8694 7.91201 16.0729 8.85342 16.0729C9.59311 16.0729 10.3328 15.9373 11.0052 15.7338C11.6777 15.5304 12.3501 15.1913 12.9553 14.7165L13.5605 14.3096L20.4194 21.7018C20.4866 21.7696 20.4866 21.7696 20.5539 21.7696H20.6211H20.6884C20.9573 21.4984 21.2935 21.1593 21.5625 20.888V20.8202V20.7524V20.5489C21.6298 20.5489 21.6298 20.5489 21.5625 20.5489Z" fill="white"/>
<path d="M13.579 14.2803L14.7965 13L15.9167 13.9957L14.5 15.5L13.579 14.2803Z" fill="white"/>
</svg>
