<svg width="18" height="18" viewBox="0 0 18 18" fill="none" xmlns="http://www.w3.org/2000/svg">
<path d="M6.66 1.22373H11.28C11.58 1.22373 11.88 1.46847 11.88 1.83559V2.14153C11.88 2.44746 11.64 2.75339 11.28 2.75339H6.66C6.36 2.75339 6.06 2.50864 6.06 2.14153V1.83559C6.12 1.46847 6.36 1.22373 6.66 1.22373ZM5.58 11.809H6.18C6.48 11.809 6.78 12.0537 6.78 12.4208V12.5432C6.78 12.8492 6.54 13.1551 6.18 13.1551H5.58C5.28 13.1551 4.98 12.9103 4.98 12.5432V12.4208C4.98 12.1149 5.28 11.809 5.58 11.809ZM8.7 11.809H9.3C9.6 11.809 9.9 12.0537 9.9 12.4208V12.5432C9.9 12.8492 9.66 13.1551 9.3 13.1551H8.7C8.4 13.1551 8.1 12.9103 8.1 12.5432V12.4208C8.1 12.1149 8.4 11.809 8.7 11.809ZM11.82 11.809H12.42C12.72 11.809 13.02 12.0537 13.02 12.4208V12.5432C13.02 12.8492 12.78 13.1551 12.42 13.1551H11.82C11.52 13.1551 11.22 12.9103 11.22 12.5432V12.4208C11.22 12.1149 11.52 11.809 11.82 11.809ZM2.46 1.89678V2.20271C2.46 2.44746 2.34 2.6922 2.1 2.75339C1.74 2.87576 1.5 3.24288 1.5 3.67119V14.6847C1.5 14.9295 1.62 15.1742 1.8 15.3578C1.98 15.5414 2.22 15.6637 2.46 15.6637H15.6C16.14 15.6637 16.56 15.2354 16.56 14.6847V3.67119C16.56 3.42644 16.44 3.18169 16.26 2.99814C16.2 2.93695 16.08 2.81458 15.96 2.75339C15.72 2.6922 15.6 2.44746 15.6 2.20271V1.89678C15.6 1.71322 15.66 1.52966 15.84 1.40729C16.02 1.28492 16.2 1.28492 16.38 1.3461C16.74 1.46847 17.04 1.65203 17.34 1.95797C17.76 2.38627 18 2.99814 18 3.67119V14.6847C18 16.092 16.56 17.1934 15.3 17.1934H2.46C1.8 17.1934 1.2 16.8875 0.72 16.4592C0.3 15.9697 0 15.3578 0 14.6847V3.67119C0 2.56983 0.72 1.65203 1.68 1.3461C1.86 1.28492 2.04 1.28492 2.22 1.40729C2.34 1.52966 2.46 1.71322 2.46 1.89678ZM8.7 9.30034H9.3C9.6 9.30034 9.9 9.54508 9.9 9.9122V10.0346C9.9 10.3405 9.66 10.6464 9.3 10.6464H8.7C8.4 10.6464 8.1 10.4017 8.1 10.0346V9.9122C8.1 9.54508 8.4 9.30034 8.7 9.30034ZM11.82 9.30034H12.42C12.72 9.30034 13.02 9.54508 13.02 9.9122V10.0346C13.02 10.3405 12.78 10.6464 12.42 10.6464H11.82C11.52 10.6464 11.22 10.4017 11.22 10.0346V9.9122C11.22 9.54508 11.52 9.30034 11.82 9.30034ZM5.58 9.30034H6.18C6.48 9.30034 6.78 9.54508 6.78 9.9122V10.0346C6.78 10.3405 6.54 10.6464 6.18 10.6464H5.58C5.28 10.6464 4.98 10.4017 4.98 10.0346V9.9122C4.98 9.54508 5.28 9.30034 5.58 9.30034ZM5.58 6.73051H6.18C6.48 6.73051 6.78 6.97525 6.78 7.34237V7.46475C6.78 7.77068 6.54 8.07661 6.18 8.07661H5.58C5.28 8.07661 4.98 7.83186 4.98 7.46475V7.34237C4.98 7.03644 5.28 6.73051 5.58 6.73051ZM8.7 6.73051H9.3C9.6 6.73051 9.9 6.97525 9.9 7.34237V7.46475C9.9 7.77068 9.66 8.07661 9.3 8.07661H8.7C8.4 8.07661 8.1 7.83186 8.1 7.46475V7.34237C8.1 7.03644 8.4 6.73051 8.7 6.73051ZM11.82 6.73051H12.42C12.72 6.73051 13.02 6.97525 13.02 7.34237V7.46475C13.02 7.77068 12.78 8.07661 12.42 8.07661H11.82C11.52 8.07661 11.22 7.83186 11.22 7.46475V7.34237C11.22 7.03644 11.52 6.73051 11.82 6.73051ZM14.46 0.611864V3.85475C14.46 4.16068 14.22 4.46661 13.86 4.46661H13.56C13.26 4.46661 12.96 4.22186 12.96 3.85475V0.611864C12.96 0.305932 13.2 0 13.56 0H13.86C14.22 0 14.46 0.244746 14.46 0.611864ZM4.98 0.611864V3.85475C4.98 4.16068 4.74 4.46661 4.38 4.46661H4.14C3.84 4.46661 3.54 4.22186 3.54 3.85475V0.611864C3.54 0.305932 3.78 0 4.14 0H4.44C4.74 0 4.98 0.244746 4.98 0.611864Z" fill="#9B63F8"/>
</svg>
