<svg width="15" height="15" viewBox="0 0 15 15" fill="none" xmlns="http://www.w3.org/2000/svg">
<path d="M10.7812 7.50026H8.90625C8.64735 7.50026 8.4375 7.71011 8.4375 7.96901V11.719C8.4375 11.9779 8.64735 12.1878 8.90625 12.1878H10.7812C11.299 12.1878 11.7188 11.768 11.7188 11.2503V8.43776C11.7188 7.91999 11.299 7.50026 10.7812 7.50026ZM10.7812 11.2503H9.375V8.43776H10.7812V11.2503Z" fill="#9B63F8"/>
<path d="M15 8.43776V7.50026H12.6562C12.3974 7.50026 12.1875 7.71011 12.1875 7.96901V12.1878H13.125V10.3128H15V9.37526H13.125V8.43776H15Z" fill="#9B63F8"/>
<path d="M0.937499 13.5938V1.40626C0.937499 1.14736 1.14735 0.937507 1.40625 0.937507H8.43749V2.81251C8.43749 3.33027 8.85723 3.75001 9.37499 3.75001H11.25V5.15626H12.1875V3.28126C12.1882 3.15666 12.1393 3.03689 12.0516 2.94844L9.23906 0.135945C9.15061 0.0482008 9.03084 -0.000695645 8.90624 7.47947e-06H1.40625C0.629589 7.47947e-06 0 0.629626 0 1.40626V13.5938C0 14.3704 0.629589 15 1.40625 15H4.6875V14.0625H1.40625C1.14738 14.0625 0.937499 13.8526 0.937499 13.5938Z" fill="#9B63F8"/>
<path d="M7.03125 7.50026H5.15625C4.89735 7.50026 4.6875 7.71011 4.6875 7.96901V12.1878H5.625V10.7815H7.03125C7.54901 10.7815 7.96875 10.3618 7.96875 9.84402V8.43776C7.96875 7.91999 7.54901 7.50026 7.03125 7.50026ZM7.03125 9.84402H5.625V8.43776H7.03125V9.84402Z" fill="#9B63F8"/>
</svg>
