<svg width="10" height="13" viewBox="0 0 10 13" fill="none" xmlns="http://www.w3.org/2000/svg">
<path fill-rule="evenodd" clip-rule="evenodd" d="M7.34614 5.94584C8.16442 5.38064 8.73806 4.45269 8.73806 3.59224C8.73806 1.68573 7.26178 0.217896 5.36372 0.217896H0.0913086V12.0281H6.03015C7.79324 12.0281 9.15985 10.594 9.15985 8.8309C9.15985 7.54865 8.43437 6.45199 7.34614 5.94584ZM2.62201 2.32703H5.15277C5.85294 2.32703 6.41814 2.89223 6.41814 3.5924C6.41814 4.29258 5.85294 4.85778 5.15277 4.85778H2.62201V2.32703ZM5.57456 9.91931H2.62201V7.38855H5.57456C6.27473 7.38855 6.83994 7.95375 6.83994 8.65393C6.83994 9.3541 6.27473 9.91931 5.57456 9.91931Z" fill="white"/>
</svg>
