<svg width="13" height="12" viewBox="0 0 13 12" fill="none" xmlns="http://www.w3.org/2000/svg">
<g opacity="0.6">
<path d="M11.1129 3.01216C10.8758 3.12687 10.7766 3.41218 10.8913 3.64916C11.2047 4.29652 11.3635 4.99431 11.3635 5.72388C11.3635 8.35396 9.22371 10.4938 6.59363 10.4938C3.96355 10.4938 1.82373 8.35396 1.82373 5.72388C1.82373 3.0938 3.96355 0.95398 6.59363 0.95398C7.68351 0.95398 8.70736 1.30986 9.55479 1.98307C9.76033 2.14715 10.0609 2.1128 10.225 1.90656C10.3891 1.70044 10.3547 1.40023 10.1483 1.23638C9.14511 0.439027 7.88265 0 6.59363 0C3.43765 0 0.869751 2.5679 0.869751 5.72388C0.869751 8.87986 3.43765 11.4478 6.59363 11.4478C9.74962 11.4478 12.3175 8.87986 12.3175 5.72388C12.3175 4.84932 12.1265 4.01121 11.7499 3.23377C11.6354 2.99621 11.3492 2.89723 11.1129 3.01216Z" fill="#211536"/>
<path d="M6.59369 1.90796C6.33039 1.90796 6.1167 2.12165 6.1167 2.38495V5.72388C6.1167 5.98718 6.33039 6.20087 6.59369 6.20087H8.97864C9.24194 6.20087 9.45563 5.98718 9.45563 5.72388C9.45563 5.46058 9.24194 5.24689 8.97864 5.24689H7.07068V2.38495C7.07068 2.12165 6.85699 1.90796 6.59369 1.90796Z" fill="#211536"/>
</g>
</svg>
