<svg width="10" height="20" viewBox="0 0 10 20" fill="none" xmlns="http://www.w3.org/2000/svg">
<path fill-rule="evenodd" clip-rule="evenodd" d="M8.18105 5.06149V14.7627C8.18105 16.627 6.67103 18.1371 4.80671 18.1371C2.94239 18.1371 1.43237 16.627 1.43237 14.7627V4.21791C1.43237 3.05376 2.37719 2.10894 3.54133 2.10894C4.70548 2.10894 5.6503 3.05376 5.6503 4.21791V13.0756C5.6503 13.5395 5.27068 13.9191 4.80671 13.9191C4.34274 13.9191 3.96313 13.5395 3.96313 13.0756V5.06149H2.69775V13.0756C2.69775 14.2397 3.64256 15.1845 4.80671 15.1845C5.97086 15.1845 6.91567 14.2397 6.91567 13.0756V4.21791C6.91567 2.35358 5.40566 0.843567 3.54133 0.843567C1.67701 0.843567 0.166992 2.35358 0.166992 4.21791V14.7627C0.166992 17.3272 2.24221 19.4024 4.80671 19.4024C7.37121 19.4024 9.44643 17.3272 9.44643 14.7627V5.06149H8.18105Z" fill="white"/>
</svg>
