<svg width="18" height="19" viewBox="0 0 18 19" fill="none" xmlns="http://www.w3.org/2000/svg">
<path d="M13.3874 9.69235L16.9598 15.1889C17.042 15.3147 17.042 15.4826 16.9598 15.6084C16.8777 15.7343 16.7545 15.8182 16.5903 15.8182L14.4961 15.6504L13.8391 17.7063C13.798 17.8742 13.6748 17.9581 13.5106 18C13.3463 18.042 13.2231 17.9581 13.141 17.8322L9.56854 12.3357C9.9381 12.2518 10.2666 12.1679 10.5951 12.042L13.3053 16.2378L13.8391 14.6434L15.4816 14.7693L12.7714 10.5735C12.9768 10.2798 13.1821 9.98606 13.3874 9.69235ZM7.5154 12.2937L3.94294 17.7903C3.86081 17.9161 3.69656 18 3.57337 17.9581C3.40912 17.9581 3.28593 17.8322 3.24487 17.6644L2.58786 15.6084L0.493659 15.7763C0.329408 15.7763 0.20622 15.7343 0.124094 15.5665C0.0419686 15.4406 0.0419686 15.2728 0.124094 15.1469L3.69656 9.65039C3.90187 9.9441 4.10719 10.2378 4.35356 10.4896L1.64342 14.6854L3.28593 14.5595L3.81975 16.1539L6.52989 11.9581C6.81733 12.1259 7.14583 12.2098 7.5154 12.2937Z" fill="#B39569"/>
<path d="M8.49945 0C10.2241 0 11.8255 0.713287 12.9753 1.88811C14.1251 3.06294 14.8231 4.65734 14.8231 6.46154C14.8231 8.22378 14.1251 9.86014 12.9753 11.035C11.8255 12.2098 10.2652 12.9231 8.49945 12.9231C6.77482 12.9231 5.17337 12.2098 4.02361 11.035C2.87385 9.86014 2.17578 8.26573 2.17578 6.46154C2.17578 4.6993 2.87385 3.06294 4.02361 1.88811C5.17337 0.713287 6.77482 0 8.49945 0ZM12.2772 2.6014C11.3328 1.63636 9.97771 1.00699 8.54051 1.00699C7.06225 1.00699 5.74824 1.59441 4.8038 2.6014C3.85936 3.56643 3.24341 4.95105 3.24341 6.41958C3.24341 7.93007 3.81829 9.27273 4.8038 10.2378C5.74824 11.2028 7.10332 11.8322 8.54051 11.8322C10.0188 11.8322 11.3328 11.2448 12.2772 10.2378C13.2217 9.27273 13.8376 7.88811 13.8376 6.41958C13.7966 4.95105 13.2217 3.60839 12.2772 2.6014Z" fill="#B39569"/>
<path d="M8.50072 2.34961C9.60941 2.34961 10.5949 2.81115 11.334 3.56639C12.0732 4.32164 12.5249 5.32863 12.5249 6.4615C12.5249 7.59436 12.0732 8.64331 11.334 9.3566C10.5949 10.1118 9.60941 10.5734 8.50072 10.5734C7.39202 10.5734 6.36545 10.1118 5.66738 9.3566C4.92825 8.60136 4.47656 7.59436 4.47656 6.4615C4.47656 5.32863 4.92825 4.32164 5.66738 3.56639C6.40651 2.81115 7.39202 2.34961 8.50072 2.34961ZM10.636 4.27968C10.1022 3.69227 9.36304 3.3566 8.50072 3.3566C7.67946 3.3566 6.89927 3.69227 6.36545 4.27968C5.83163 4.82513 5.46207 5.62234 5.46207 6.4615C5.46207 7.30066 5.79057 8.09786 6.36545 8.64332C6.89927 9.18877 7.67946 9.56639 8.50072 9.56639C9.32197 9.56639 10.1022 9.23073 10.636 8.68527C11.1698 8.13982 11.5394 7.34262 11.5394 6.50346C11.5394 5.58038 11.1698 4.82513 10.636 4.27968Z" fill="#B39569"/>
</svg>
