<svg width="16" height="17" viewBox="0 0 16 17" fill="none" xmlns="http://www.w3.org/2000/svg">
<path d="M12.6562 8.39092C11.6224 8.39092 10.7812 9.21872 10.7812 10.2362C10.7812 11.2537 11.6224 12.0815 12.6562 12.0815H15.3125C15.3231 12.0815 15.3334 12.0805 15.3439 12.08C15.3543 12.0805 15.3645 12.0815 15.375 12.0815C15.7202 12.0815 16 11.8061 16 11.4664V6.63785C16 5.81897 15.591 5.09269 14.9639 4.64523L12.8377 1.21235C12.751 1.07235 12.6111 0.972215 12.449 0.934202C12.2869 0.896127 12.1162 0.923345 11.9746 1.00977L10.4066 1.96674L9.69944 0.789007C9.61441 0.647411 9.47534 0.545242 9.31325 0.505261C9.15119 0.465279 8.97953 0.490898 8.83675 0.576274L2.81591 4.17745H1.875C1.53559 4.17745 1.2585 3.90982 1.25019 3.57772C1.2585 3.24563 1.53559 2.978 1.875 2.978H3.03125C3.37644 2.978 3.65625 2.70262 3.65625 2.3629C3.65625 2.02318 3.37644 1.7478 3.03125 1.7478H1.875C0.990687 1.7478 0.247469 2.35349 0.0509375 3.16545C0.01825 3.24006 0 3.32218 0 3.40857V3.56234V3.5931V13.773C0 15.1297 1.1215 16.2334 2.5 16.2334H13.5C14.5778 16.2334 15.531 15.5577 15.8719 14.552C15.9812 14.2298 15.8042 13.8814 15.4768 13.7739C15.1494 13.6664 14.7954 13.8405 14.6862 14.1627C14.5157 14.6654 14.0391 15.0032 13.5 15.0032H2.5C1.81075 15.0032 1.25 14.4514 1.25 13.773V5.30213C1.44559 5.3704 1.65594 5.40765 1.875 5.40765H13.5C14.1892 5.40765 14.75 5.95952 14.75 6.63785V8.39092H12.6562ZM14.75 10.8513H12.6562C12.3116 10.8513 12.0312 10.5754 12.0312 10.2362C12.0312 9.89703 12.3116 9.62109 12.6562 9.62109H14.75V10.8513ZM5.22275 4.17748L8.94522 1.95103L9.61075 3.05947C9.62353 3.08976 9.63822 3.11963 9.65634 3.14841C9.66994 3.16997 9.685 3.19005 9.70072 3.20937L10.282 4.17748H5.22275ZM11.7339 4.17745L11.0426 3.0261L12.0981 2.38193L13.2102 4.17745H11.7339Z" fill="#211536"/>
</svg>
