<svg width="20" height="21" viewBox="0 0 20 21" fill="none" xmlns="http://www.w3.org/2000/svg">
<path d="M14.1926 10.5024C14.1237 10.2937 13.9403 10.1415 13.7196 10.11L11.4726 9.78865L10.4659 7.74725C10.3679 7.54854 10.1632 7.42236 9.93874 7.42236C9.71429 7.42236 9.5096 7.54854 9.4116 7.74725L8.40523 9.78792L6.12011 10.1098C5.898 10.1411 5.71355 10.2944 5.64511 10.5047C5.57671 10.715 5.63628 10.9452 5.79858 11.0977L7.45695 12.6557L7.03886 14.8914C6.99839 15.1078 7.08659 15.328 7.2662 15.459C7.44585 15.5901 7.68558 15.609 7.88417 15.508L9.93648 14.464L11.9507 15.5062C12.1478 15.6082 12.3868 15.5914 12.5672 15.4627C12.7476 15.3341 12.8382 15.1159 12.8011 14.8997L12.416 12.6557L14.0443 11.0935C14.204 10.9404 14.2615 10.7112 14.1926 10.5024ZM11.3781 12.0408C11.2403 12.1729 11.1773 12.3631 11.2093 12.5498L11.4486 13.9434L10.2115 13.3033C10.0421 13.2157 9.8398 13.215 9.66976 13.3015L8.40773 13.9435L8.66679 12.5581C8.70253 12.3669 8.638 12.1709 8.49511 12.0366L7.48034 11.0833L8.87949 10.8861C9.07218 10.859 9.23863 10.7394 9.32363 10.5671L9.93878 9.31968L10.5539 10.5671C10.6387 10.7391 10.8046 10.8585 10.9968 10.886L12.3762 11.0832L11.3781 12.0408Z" fill="black"/>
<path d="M18.2422 1.65576H17.6562V1.0791C17.6562 0.760631 17.3939 0.502441 17.0703 0.502441C16.7467 0.502441 16.4844 0.760631 16.4844 1.0791V1.65576H14.1016V1.0791C14.1016 0.760631 13.8392 0.502441 13.5156 0.502441C13.192 0.502441 12.9297 0.760631 12.9297 1.0791V1.65576H10.5859V1.0791C10.5859 0.760631 10.3236 0.502441 10 0.502441C9.67641 0.502441 9.41406 0.760631 9.41406 1.0791V1.65576H7.03125V1.0791C7.03125 0.760631 6.76891 0.502441 6.44531 0.502441C6.12172 0.502441 5.85938 0.760631 5.85938 1.0791V1.65576H3.51562V1.0791C3.51562 0.760631 3.25328 0.502441 2.92969 0.502441C2.60609 0.502441 2.34375 0.760631 2.34375 1.0791V1.65576H1.75781C0.788555 1.65576 0 2.43183 0 3.38574V18.4558C0 19.4097 0.788555 20.1857 1.75781 20.1857H18.2422C19.2114 20.1857 20 19.4097 20 18.4558V3.38574C20 2.43183 19.2114 1.65576 18.2422 1.65576ZM18.8281 18.4558C18.8281 18.7737 18.5653 19.0324 18.2422 19.0324H1.75781C1.43473 19.0324 1.17188 18.7737 1.17188 18.4558V17.8791H18.8281V18.4558ZM18.8281 16.7258H1.17188V6.26903H18.8281V16.7258ZM18.8281 5.11571H1.17188V3.38574C1.17188 3.06777 1.43473 2.80908 1.75781 2.80908H2.34375V3.38574C2.34375 3.70421 2.60609 3.96239 2.92969 3.96239C3.25328 3.96239 3.51562 3.70421 3.51562 3.38574V2.80908H5.85938V3.38574C5.85938 3.70421 6.12172 3.96239 6.44531 3.96239C6.76891 3.96239 7.03125 3.70421 7.03125 3.38574V2.80908H9.41406V3.38574C9.41406 3.70421 9.67641 3.96239 10 3.96239C10.3236 3.96239 10.5859 3.70421 10.5859 3.38574V2.80908H12.9297V3.38574C12.9297 3.70421 13.192 3.96239 13.5156 3.96239C13.8392 3.96239 14.1016 3.70421 14.1016 3.38574V2.80908H16.4844V3.38574C16.4844 3.70421 16.7467 3.96239 17.0703 3.96239C17.3939 3.96239 17.6562 3.70421 17.6562 3.38574V2.80908H18.2422C18.5653 2.80908 18.8281 3.06777 18.8281 3.38574V5.11571Z" fill="black"/>
</svg>
