<svg width="17" height="22" viewBox="0 0 17 22" fill="none" xmlns="http://www.w3.org/2000/svg">
<path d="M8.53314 -0.000427246C9.32846 -0.000427246 10.1238 0.134957 10.8528 0.473419C11.5819 0.81188 12.2446 1.21803 12.8411 1.82727C13.3713 2.3688 13.8353 3.04573 14.1667 3.85803C14.3655 4.53496 14.5643 5.34727 14.5643 6.15957C14.5643 6.97188 14.4318 7.78419 14.1004 8.5288C13.769 9.27342 13.3713 9.95034 12.7749 10.5596C12.2446 11.1011 11.5819 11.575 10.7865 11.9134C10.0575 12.1842 9.32846 12.3873 8.46686 12.3873C7.67154 12.3873 6.87622 12.2519 6.14717 11.9134C5.41813 11.575 4.75536 11.1688 4.15887 10.5596C3.62866 10.018 3.16472 9.34111 2.83333 8.5288C2.6345 7.78419 2.50195 6.97188 2.50195 6.15957C2.50195 5.34727 2.6345 4.53496 2.96589 3.79034C3.29727 3.04573 3.69493 2.3688 4.29142 1.75957C4.82164 1.21803 5.48441 0.744188 6.27973 0.405727C6.9425 0.134957 7.67154 -0.000427246 8.53314 -0.000427246ZM10.1901 2.03034C9.65984 1.82727 9.12963 1.69188 8.53314 1.69188C7.93665 1.69188 7.34016 1.82727 6.87622 2.03034C6.27973 2.23342 5.81579 2.57188 5.41813 2.97803C4.95419 3.38419 4.62281 3.85803 4.42398 4.39957C4.22515 4.94111 4.09259 5.55034 4.09259 6.15957C4.09259 6.7688 4.22515 7.37803 4.42398 7.85188C4.62281 8.39342 4.95419 8.86727 5.35185 9.34111C5.74951 9.74727 6.21345 10.0857 6.80994 10.2888C7.34016 10.4919 7.87037 10.6273 8.46686 10.6273C9.06335 10.6273 9.65985 10.4919 10.1238 10.2888C10.654 10.0857 11.1179 9.74727 11.5819 9.34111C11.9795 8.93496 12.3109 8.39342 12.5097 7.85188C12.7086 7.31034 12.8411 6.7688 12.8411 6.15957C12.8411 5.55034 12.7086 4.94111 12.5097 4.46727C12.3109 3.92573 11.9795 3.45188 11.5819 2.97803C11.1842 2.57188 10.7203 2.23342 10.1901 2.03034ZM10.9191 12.658C11.5819 12.8611 12.1784 13.0642 12.7086 13.4026C13.3051 13.7411 13.8353 14.0796 14.2992 14.5534C15.0283 15.2303 15.6248 15.9073 16.0224 16.6519C16.4201 17.3965 16.7515 18.1411 16.9503 18.9534C17.0166 19.2919 17.0166 19.698 16.9503 20.0365C16.884 20.375 16.7515 20.7134 16.4864 21.0519C16.2875 21.3227 15.9561 21.5934 15.691 21.7288C15.3597 21.8642 15.0283 21.9996 14.6306 21.9996H2.3694C1.97173 21.9996 1.64035 21.9319 1.30897 21.7288C0.977583 21.5934 0.712476 21.3227 0.513645 21.0519C0.314815 20.7811 0.115984 20.4426 0.0497076 20.0365C-0.0165692 19.698 -0.0165692 19.2919 0.0497076 18.9534C0.248538 18.1411 0.513645 17.3288 0.977583 16.6519C1.37524 15.9073 1.97173 15.2303 2.70078 14.5534C3.16472 14.0796 3.69493 13.7411 4.29142 13.4026C4.88791 13.0642 5.48441 12.8611 6.0809 12.658L6.74367 12.455L7.07505 13.0642L8.53314 16.0427L9.99123 13.0642L10.3226 12.455L10.9191 12.658ZM11.9133 14.8919C11.6481 14.7565 11.383 14.6211 11.0517 14.4857L9.19591 18.2765L8.46686 19.7657L7.80409 18.2765L5.94834 14.4857C5.68324 14.6211 5.35185 14.7565 5.08674 14.8919C4.62281 15.1627 4.15887 15.5011 3.76121 15.8396C3.16472 16.3811 2.70078 16.9226 2.3694 17.5319C2.03801 18.1411 1.7729 18.7503 1.64035 19.4273C1.64035 19.5627 1.57407 19.698 1.64035 19.7657C1.64035 19.9011 1.70663 19.9688 1.7729 20.1042C1.83918 20.1719 1.90546 20.3073 2.03801 20.3073C2.10429 20.375 2.23684 20.375 2.3694 20.375H14.6306C14.7632 20.375 14.8957 20.375 14.962 20.3073C15.0283 20.2396 15.1608 20.1719 15.2271 20.1042C15.2934 20.0365 15.3597 19.9011 15.3597 19.7657C15.3597 19.6303 15.3597 19.5627 15.3597 19.4273C15.1608 18.7503 14.962 18.1411 14.6306 17.5319C14.2992 16.9226 13.8353 16.3811 13.2388 15.8396C12.8411 15.5011 12.3772 15.1627 11.9133 14.8919Z" fill="#211536"/>
</svg>
