<svg width="20" height="21" viewBox="0 0 20 21" fill="none" xmlns="http://www.w3.org/2000/svg">
<path d="M4.9054 8.24561C3.60922 8.24561 2.55469 9.2834 2.55469 10.5591C2.55469 11.8348 3.60922 12.8726 4.9054 12.8726C6.20157 12.8726 7.2561 11.8348 7.2561 10.5591C7.2561 9.2834 6.20161 8.24561 4.9054 8.24561ZM4.9054 11.7159C4.25727 11.7159 3.72996 11.1969 3.72996 10.559C3.72996 9.92118 4.25723 9.40223 4.9054 9.40223C5.55352 9.40223 6.08083 9.92114 6.08083 10.559C6.08083 11.1969 5.55356 11.7159 4.9054 11.7159Z" fill="#211536"/>
<path d="M12.7801 8.83691H10.4297V9.99368H12.7801V8.83691Z" fill="#211536"/>
<path d="M16.3074 8.83691H13.957V9.99368H16.3074V8.83691Z" fill="#211536"/>
<path d="M12.7801 11.1504H10.4297V12.3072H12.7801V11.1504Z" fill="#211536"/>
<path d="M16.3074 11.1504H13.957V12.3072H16.3074V11.1504Z" fill="#211536"/>
<path d="M12.7801 4.26318H10.4297V5.41995H12.7801V4.26318Z" fill="#211536"/>
<path d="M16.3074 4.26318H13.957V5.41995H16.3074V4.26318Z" fill="#211536"/>
<path d="M12.7801 6.57617H10.4297V7.73297H12.7801V6.57617Z" fill="#211536"/>
<path d="M16.3074 6.57617H13.957V7.73297H16.3074V6.57617Z" fill="#211536"/>
<path d="M17.6386 1.64552V0.486816H9.01938V1.6514H6.62954V6.04838C6.09293 5.84909 5.51196 5.73972 4.90536 5.73972C2.20485 5.73972 0.0078125 7.90196 0.0078125 10.5597C0.0078125 11.6484 0.738087 13.4333 2.24035 16.0164C3.31668 17.8669 4.4084 19.4508 4.4193 19.4666L4.90528 20.1701L5.39125 19.4666C5.4 19.4539 6.1095 18.4246 6.94743 17.0581H19.9892V1.65336H19.9892L17.6386 1.64552ZM4.90532 18.0946C3.5443 16.0305 1.18309 12.1243 1.18309 10.5597C1.18309 8.5397 2.85285 6.89638 4.90532 6.89638C6.95782 6.89638 8.62759 8.5397 8.62759 10.5597C8.62759 12.1243 6.26641 16.0305 4.90532 18.0946ZM18.814 15.9014H13.9561V13.5107H12.7808V15.9014H7.63672C9.09376 13.3805 9.8029 11.6321 9.8029 10.5597C9.8029 8.96901 9.01571 7.55608 7.80481 6.67771V2.8081H10.1947V1.64352H16.4634V2.79826L18.814 2.80614V15.9014Z" fill="#211536"/>
</svg>
