<svg width="17" height="22" viewBox="0 0 17 22" fill="none" xmlns="http://www.w3.org/2000/svg">
<path d="M8.51654 0C9.31031 0 10.1041 0.135385 10.8317 0.473846C11.5593 0.812308 12.2208 1.21846 12.8161 1.82769C13.3453 2.36923 13.8084 3.04615 14.1391 3.85846C14.3375 4.53538 14.536 5.34769 14.536 6.16C14.536 6.97231 14.4037 7.78462 14.073 8.52923C13.7422 9.27385 13.3453 9.95077 12.75 10.56C12.2208 11.1015 11.5593 11.5754 10.7656 11.9138C10.0379 12.1846 9.31031 12.3877 8.45039 12.3877C7.65661 12.3877 6.86284 12.2523 6.13521 11.9138C5.40759 11.5754 4.74611 11.1692 4.15078 10.56C3.6216 10.0185 3.15856 9.34154 2.82782 8.52923C2.62938 7.78462 2.49708 6.97231 2.49708 6.16C2.49708 5.34769 2.62938 4.53538 2.96012 3.79077C3.29086 3.04615 3.68774 2.36923 4.28307 1.76C4.81226 1.21846 5.47374 0.744615 6.26751 0.406154C6.92899 0.135385 7.65661 0 8.51654 0ZM10.1702 2.03077C9.64105 1.82769 9.11187 1.69231 8.51654 1.69231C7.92121 1.69231 7.32588 1.82769 6.86284 2.03077C6.26751 2.23385 5.80447 2.57231 5.40759 2.97846C4.94455 3.38462 4.61381 3.85846 4.41537 4.4C4.21693 4.94154 4.08463 5.55077 4.08463 6.16C4.08463 6.76923 4.21693 7.37846 4.41537 7.85231C4.61381 8.39385 4.94455 8.86769 5.34144 9.34154C5.73833 9.74769 6.20136 10.0862 6.79669 10.2892C7.32588 10.4923 7.85506 10.6277 8.45039 10.6277C9.04572 10.6277 9.64105 10.4923 10.1041 10.2892C10.6333 10.0862 11.0963 9.74769 11.5593 9.34154C11.9562 8.93538 12.287 8.39385 12.4854 7.85231C12.6839 7.31077 12.8161 6.76923 12.8161 6.16C12.8161 5.55077 12.6839 4.94154 12.4854 4.46769C12.287 3.92615 11.9562 3.45231 11.5593 2.97846C11.1625 2.57231 10.6994 2.23385 10.1702 2.03077ZM10.8979 12.6585C11.5593 12.8615 12.1547 13.0646 12.6839 13.4031C13.2792 13.7415 13.8084 14.08 14.2714 14.5538C14.999 15.2308 15.5944 15.9077 15.9912 16.6523C16.3881 17.3969 16.7189 18.1415 16.9173 18.9538C16.9835 19.2923 16.9835 19.6985 16.9173 20.0369C16.8512 20.3754 16.7189 20.7138 16.4543 21.0523C16.2558 21.3231 15.9251 21.5938 15.6605 21.7292C15.3298 21.8646 14.999 22 14.6021 22H2.36479C1.9679 22 1.63716 21.9323 1.30642 21.7292C0.975681 21.5938 0.711089 21.3231 0.512646 21.0523C0.314202 20.7815 0.115759 20.4431 0.0496109 20.0369C-0.016537 19.6985 -0.016537 19.2923 0.0496109 18.9538C0.248054 18.1415 0.512646 17.3292 0.975681 16.6523C1.37257 15.9077 1.9679 15.2308 2.69553 14.5538C3.15856 14.08 3.68774 13.7415 4.28307 13.4031C4.8784 13.0646 5.47374 12.8615 6.06907 12.6585L6.73054 12.4554L7.06128 13.0646L8.51654 16.0431L9.97179 13.0646L10.3025 12.4554L10.8979 12.6585ZM11.8901 14.8923C11.6255 14.7569 11.3609 14.6215 11.0302 14.4862L9.17802 18.2769L8.45039 19.7662L7.78891 18.2769L5.93677 14.4862C5.67218 14.6215 5.34144 14.7569 5.07685 14.8923C4.61381 15.1631 4.15078 15.5015 3.75389 15.84C3.15856 16.3815 2.69553 16.9231 2.36479 17.5323C2.03405 18.1415 1.76946 18.7508 1.63716 19.4277C1.63716 19.5631 1.57101 19.6985 1.63716 19.7662C1.63716 19.9015 1.70331 19.9692 1.76946 20.1046C1.8356 20.1723 1.90175 20.3077 2.03405 20.3077C2.10019 20.3754 2.23249 20.3754 2.36479 20.3754H14.6021C14.7344 20.3754 14.8667 20.3754 14.9329 20.3077C14.999 20.24 15.1313 20.1723 15.1975 20.1046C15.2636 20.0369 15.3298 19.9015 15.3298 19.7662C15.3298 19.6308 15.3298 19.5631 15.3298 19.4277C15.1313 18.7508 14.9329 18.1415 14.6021 17.5323C14.2714 16.9231 13.8084 16.3815 13.213 15.84C12.8161 15.5015 12.3531 15.1631 11.8901 14.8923Z" fill="#9B63F8"/>
</svg>
