<svg width="18" height="23" viewBox="0 0 18 23" fill="none" xmlns="http://www.w3.org/2000/svg">
<path d="M12.2433 0.177757C12.1391 0.0666809 11.9963 0 11.8483 0H2.98538C1.34995 0 0 1.36117 0 3.01661V19.9832C0 21.6388 1.34995 23 2.98538 23H15.0146C16.6501 23 18 21.6388 18 19.9832V6.51104C18 6.36662 17.9341 6.22782 17.8409 6.12218L12.2433 0.177757ZM12.4024 1.96112L16.1507 5.94443H13.7141C12.9897 5.94443 12.4024 5.35553 12.4024 4.62222V1.96112ZM15.0146 21.8889H2.98538C1.95923 21.8889 1.09757 21.0278 1.09757 19.9832V3.01661C1.09757 1.97779 1.95368 1.11111 2.98538 1.11111H11.3049V4.62222C11.3049 5.97215 12.3806 7.05554 13.7141 7.05554H16.9024V19.9832C16.9024 21.0278 16.0463 21.8889 15.0146 21.8889Z" fill="white"/>
<path d="M13.5164 18.0556H4.48344C4.18166 18.0556 3.93465 18.3054 3.93465 18.6111C3.93465 18.9166 4.18166 19.1667 4.48344 19.1667H13.5219C13.8237 19.1667 14.0707 18.9166 14.0707 18.6111C14.0707 18.3054 13.8237 18.0556 13.5164 18.0556Z" fill="white"/>
<path d="M8.59927 16.061C8.70362 16.1721 8.84627 16.2388 8.99985 16.2388C9.1536 16.2388 9.29625 16.1721 9.40043 16.061L12.6163 12.5666C12.8249 12.3442 12.8084 11.9887 12.589 11.7832C12.3693 11.5722 12.0182 11.5886 11.8152 11.811L9.54863 14.272V8.20547C9.54863 7.89979 9.30163 7.64991 8.99985 7.64991C8.69807 7.64991 8.45106 7.89979 8.45106 8.20547V14.272L6.19006 11.811C5.98153 11.5888 5.63573 11.5722 5.41628 11.7832C5.19684 11.9943 5.18037 12.3444 5.3889 12.5666L8.59927 16.061Z" fill="white"/>
</svg>
