<svg width="19" height="6" viewBox="0 0 19 6" fill="none" xmlns="http://www.w3.org/2000/svg">
<path d="M0 3.03125C0 2.41146 0.205078 1.90104 0.615234 1.5C1.03451 1.09896 1.57682 0.898438 2.24219 0.898438C2.88932 0.898438 3.42708 1.09896 3.85547 1.5C4.28385 1.89193 4.49805 2.40234 4.49805 3.03125C4.49805 3.66927 4.2793 4.18424 3.8418 4.57617C3.41341 4.95898 2.88021 5.15039 2.24219 5.15039C1.59505 5.15039 1.05729 4.95443 0.628906 4.5625C0.209635 4.17057 0 3.66016 0 3.03125ZM7.14844 3.03125C7.14844 2.41146 7.35352 1.90104 7.76367 1.5C8.18294 1.09896 8.72526 0.898438 9.39062 0.898438C10.0378 0.898438 10.5755 1.09896 11.0039 1.5C11.4323 1.89193 11.6465 2.40234 11.6465 3.03125C11.6465 3.66927 11.4277 4.18424 10.9902 4.57617C10.5618 4.95898 10.0286 5.15039 9.39062 5.15039C8.74349 5.15039 8.20573 4.95443 7.77734 4.5625C7.35807 4.17057 7.14844 3.66016 7.14844 3.03125ZM14.2969 3.03125C14.2969 2.41146 14.502 1.90104 14.9121 1.5C15.3314 1.09896 15.8737 0.898438 16.5391 0.898438C17.1862 0.898438 17.724 1.09896 18.1523 1.5C18.5807 1.89193 18.7949 2.40234 18.7949 3.03125C18.7949 3.66927 18.5762 4.18424 18.1387 4.57617C17.7103 4.95898 17.1771 5.15039 16.5391 5.15039C15.8919 5.15039 15.3542 4.95443 14.9258 4.5625C14.5065 4.17057 14.2969 3.66016 14.2969 3.03125Z" fill="white"/>
</svg>
