<svg width="21" height="21" viewBox="0 0 21 21" fill="none" xmlns="http://www.w3.org/2000/svg">
<path fill-rule="evenodd" clip-rule="evenodd" d="M6.51068 0L14.0523 7.54166C14.55 8.03937 14.55 8.84077 14.0523 9.33005L9.41261 13.9698C9.16797 14.2144 8.83897 14.3409 8.51841 14.3409C8.19785 14.3409 7.86885 14.2144 7.62421 13.9698L2.98449 9.33005C2.48678 8.84077 2.48678 8.03937 2.98449 7.54166L7.32896 3.19719L5.32122 1.18945L6.51068 0ZM8.5183 4.39505L4.47753 8.43582H12.5591L8.5183 4.39505ZM16.1106 14.3413C15.1827 14.3413 14.4234 13.5821 14.4234 12.6541C14.4234 11.9607 14.7456 11.5605 15.1909 11.0075C15.4662 10.6657 15.7884 10.2655 16.1106 9.7016C16.1106 9.7016 17.7978 11.5322 17.7978 12.6541C17.7978 13.5821 17.0385 14.3413 16.1106 14.3413ZM20.3286 16.8717H0.0825195V20.246H20.3286V16.8717Z" fill="white"/>
</svg>
