<svg width="19" height="19" viewBox="0 0 19 19" fill="none" xmlns="http://www.w3.org/2000/svg">
<path d="M11.541 19H4.45312C2.81611 19 1.48438 17.6683 1.48438 16.0312V5.97461C1.48438 4.33759 2.81611 3.00586 4.45312 3.00586H11.541C13.178 3.00586 14.5098 4.33759 14.5098 5.97461V16.0312C14.5098 17.6683 13.178 19 11.541 19ZM4.45312 4.49023C3.63469 4.49023 2.96875 5.15617 2.96875 5.97461V16.0312C2.96875 16.8497 3.63469 17.5156 4.45312 17.5156H11.541C12.3595 17.5156 13.0254 16.8497 13.0254 16.0312V5.97461C13.0254 5.15617 12.3595 4.49023 11.541 4.49023H4.45312ZM17.4785 14.1758V2.96875C17.4785 1.33173 16.1468 0 14.5098 0H6.27148C5.86154 0 5.5293 0.332245 5.5293 0.742188C5.5293 1.15213 5.86154 1.48438 6.27148 1.48438H14.5098C15.3282 1.48438 15.9941 2.15031 15.9941 2.96875V14.1758C15.9941 14.5857 16.3264 14.918 16.7363 14.918C17.1463 14.918 17.4785 14.5857 17.4785 14.1758Z" fill="#9B63F8"/>
</svg>
