<svg width="4" height="11" viewBox="0 0 4 11" fill="none" xmlns="http://www.w3.org/2000/svg">
<path d="M0.739932 0.154663H3.38526L2.94438 6.65422H1.18082L0.739932 0.154663ZM2.0626 10.224C1.67386 10.224 1.34675 10.1007 1.08127 9.85422C0.825266 9.59822 0.697266 9.29007 0.697266 8.92977C0.697266 8.56948 0.825266 8.27081 1.08127 8.03377C1.33727 7.78726 1.66438 7.664 2.0626 7.664C2.46082 7.664 2.78793 7.78726 3.04393 8.03377C3.29993 8.27081 3.42793 8.56948 3.42793 8.92977C3.42793 9.29007 3.29519 9.59822 3.02971 9.85422C2.77371 10.1007 2.45134 10.224 2.0626 10.224Z" fill="white"/>
</svg>
