<svg width="16" height="14" viewBox="0 0 16 14" fill="none" xmlns="http://www.w3.org/2000/svg">
<path d="M8 4.00039C5.84609 4.00039 4.09375 5.69963 4.09375 7.78826C4.09375 9.87689 5.84609 11.5761 8 11.5761C10.1539 11.5761 11.9062 9.87689 11.9062 7.78826C11.9062 5.69963 10.1539 4.00039 8 4.00039ZM8 10.364C6.53534 10.364 5.34375 9.20853 5.34375 7.78826C5.34375 6.36799 6.53534 5.21251 8 5.21251C9.46466 5.21251 10.6562 6.36799 10.6562 7.78826C10.6562 9.20853 9.46466 10.364 8 10.364Z" fill="#545454"/>
<path d="M14.125 2.18182H11.8258C11.753 2.18182 11.6874 2.1433 11.6537 2.081L11.0176 0.784849C11.0158 0.781303 11.0141 0.777788 11.0122 0.774273C10.766 0.296697 10.2709 0 9.72028 0H6.32425C5.77359 0 5.27853 0.296697 5.03231 0.774303C5.03047 0.777818 5.02872 0.781333 5.02697 0.784879L4.39084 2.08109C4.35709 2.1433 4.29153 2.18182 4.21875 2.18182H1.875C0.841125 2.18182 0 2.99745 0 4V12.1818C0 13.1844 0.841125 14 1.875 14H14.125C15.1589 14 16 13.1844 16 12.1818V4C16 2.99745 15.1589 2.18182 14.125 2.18182ZM14.75 12.1818C14.75 12.516 14.4696 12.7878 14.125 12.7878H1.875C1.53038 12.7878 1.25 12.516 1.25 12.1818V4C1.25 3.66582 1.53038 3.39394 1.875 3.39394H4.21875C4.76937 3.39394 5.26444 3.09727 5.51069 2.6197C5.51253 2.61618 5.51428 2.61264 5.51606 2.60909L6.15219 1.31288C6.18591 1.25064 6.25147 1.21212 6.32425 1.21212H9.72028C9.79306 1.21212 9.85862 1.25064 9.89234 1.31285L10.5285 2.60906C10.5303 2.61261 10.532 2.61615 10.5338 2.61967C10.7801 3.09724 11.2752 3.39391 11.8258 3.39391H14.125C14.4696 3.39391 14.75 3.66579 14.75 3.99997V12.1818Z" fill="#545454"/>
<path d="M13.5 4.60605H12.25V5.81774H13.5V4.60605Z" fill="#545454"/>
</svg>
