<svg width="11" height="136" viewBox="0 0 11 136" fill="none" xmlns="http://www.w3.org/2000/svg">
<path d="M11 5.5C11 8.53757 8.53757 11 5.5 11C2.46243 11 0 8.53757 0 5.5C0 2.46243 2.46243 0 5.5 0C8.53757 0 11 2.46243 11 5.5Z" fill="white"/>
<path d="M11 26.5C11 29.5376 8.53757 32 5.5 32C2.46243 32 0 29.5376 0 26.5C0 23.4624 2.46243 21 5.5 21C8.53757 21 11 23.4624 11 26.5Z" fill="white"/>
<path d="M11 47.5C11 50.5376 8.53757 53 5.5 53C2.46243 53 0 50.5376 0 47.5C0 44.4624 2.46243 42 5.5 42C8.53757 42 11 44.4624 11 47.5Z" fill="white"/>
<path d="M11 68.5C11 71.5376 8.53757 74 5.5 74C2.46243 74 0 71.5376 0 68.5C0 65.4624 2.46243 63 5.5 63C8.53757 63 11 65.4624 11 68.5Z" fill="white"/>
<path d="M11 89.5C11 92.5376 8.53757 95 5.5 95C2.46243 95 0 92.5376 0 89.5C0 86.4624 2.46243 84 5.5 84C8.53757 84 11 86.4624 11 89.5Z" fill="white"/>
<path d="M11 110.5C11 113.538 8.53757 116 5.5 116C2.46243 116 0 113.538 0 110.5C0 107.462 2.46243 105 5.5 105C8.53757 105 11 107.462 11 110.5Z" fill="white"/>
<path d="M11 130.5C11 133.538 8.53757 136 5.5 136C2.46243 136 0 133.538 0 130.5C0 127.462 2.46243 125 5.5 125C8.53757 125 11 127.462 11 130.5Z" fill="white"/>
</svg>
