<svg width="15" height="14" viewBox="0 0 15 14" fill="none" xmlns="http://www.w3.org/2000/svg">
<path d="M13.8333 3.22538H12.2424V0.475196C12.2424 0.212776 12.0186 0 11.7424 0H3.25758C2.98146 0 2.75757 0.212748 2.75757 0.475196V3.22538H1.16666C0.523359 3.22538 0 3.7228 0 4.33418V9.11487C0 9.72624 0.523359 10.2236 1.16666 10.2236H2.75766V12.7744C2.75766 13.0369 2.98151 13.2496 3.25767 13.2496H11.7423C12.0185 13.2496 12.2423 13.0369 12.2423 12.7744V10.2236H13.8333C14.4766 10.2236 15 9.72624 15 9.11487V4.33418C15 3.72283 14.4766 3.22538 13.8333 3.22538ZM3.75756 0.950392H11.2424V3.22538H3.75756V0.950392ZM11.2423 12.2992H3.75768C3.75768 12.2064 3.75768 8.52644 3.75768 8.41158H11.2424C11.2423 8.52933 11.2423 12.2099 11.2423 12.2992ZM14 9.1149C14 9.20224 13.9252 9.2733 13.8333 9.2733H12.2423V7.93644C12.2423 7.67402 12.0185 7.46125 11.7423 7.46125H3.25767C2.98154 7.46125 2.75766 7.674 2.75766 7.93644V9.2733H1.16666C1.07476 9.2733 0.99999 9.20224 0.99999 9.1149V4.3342C0.99999 4.24686 1.07476 4.17581 1.16666 4.17581C1.55027 4.17581 13.4587 4.17581 13.8333 4.17581C13.9252 4.17581 14 4.24686 14 4.3342V9.1149Z" fill="#9B63F8"/>
</svg>
