<svg width="23" height="14" viewBox="0 0 23 14" fill="none" xmlns="http://www.w3.org/2000/svg">
<path fill-rule="evenodd" clip-rule="evenodd" d="M19.7948 8.2761C20.5577 9.02098 21.363 9.7218 22.0472 10.5418C22.3495 10.9062 22.6357 11.2822 22.8546 11.7051C23.1648 12.3062 22.8839 12.9678 22.3448 13.0037L18.9941 13.0022C18.1299 13.0739 17.4405 12.726 16.8608 12.1351C16.3969 11.6626 15.9673 11.1596 15.5212 10.6712C15.3384 10.4715 15.1469 10.2837 14.9183 10.1352C14.4609 9.83826 14.0638 9.92916 13.8024 10.4062C13.5362 10.8915 13.4758 11.4287 13.4497 11.9695C13.4138 12.7585 13.1753 12.966 12.3827 13.0021C10.6889 13.082 9.08144 12.8257 7.58814 11.9713C6.27158 11.218 5.25065 10.1546 4.36204 8.9507C2.63191 6.6065 1.30696 4.03059 0.116158 1.38252C-0.151883 0.785912 0.0441411 0.465653 0.702417 0.454318C1.79551 0.433083 2.88846 0.434594 3.98284 0.452806C4.42711 0.459305 4.72122 0.714122 4.89276 1.13383C5.48416 2.58799 6.2078 3.9715 7.11614 5.2539C7.35803 5.59531 7.60468 5.93673 7.95593 6.17704C8.3445 6.44312 8.64035 6.35493 8.82315 5.92207C8.93915 5.64761 8.98993 5.35198 9.01608 5.05802C9.10268 4.04669 9.11409 3.0371 8.9622 2.02932C8.86894 1.40036 8.51468 0.993196 7.88708 0.874176C7.56683 0.813494 7.61451 0.694323 7.76958 0.511523C8.0389 0.196252 8.29221 0 8.79715 0H12.584C13.1801 0.11766 13.3125 0.385475 13.3941 0.985337L13.3974 5.1917C13.3909 5.42392 13.5134 6.11303 13.9317 6.26674C14.2664 6.37616 14.4871 6.10835 14.6879 5.89608C15.5946 4.93379 16.2417 3.79656 16.8198 2.61898C17.0764 2.10118 17.2969 1.56344 17.5107 1.02614C17.6691 0.627445 17.9177 0.431269 18.3668 0.439959L22.0113 0.443209C22.1194 0.443209 22.2288 0.444796 22.3334 0.462706C22.9476 0.567368 23.1159 0.831555 22.9262 1.43127C22.6273 2.37217 22.0458 3.15627 21.4772 3.94399C20.8694 4.78499 20.2194 5.5972 19.6167 6.44319C19.0629 7.21573 19.1069 7.60513 19.7948 8.2761Z" fill="white"/>
</svg>
