<svg width="21" height="21" viewBox="0 0 21 21" fill="none" xmlns="http://www.w3.org/2000/svg">
<path d="M20.9928 10.4944L11.4224 0V6.28629H10.3106C7.55665 6.28629 4.96738 7.35878 3.01994 9.30622C1.07249 11.2537 0 13.8429 0 16.5971V21L1.83673 18.9875C4.29366 16.2957 7.78127 14.7385 11.4224 14.7031V20.9889L20.9928 10.4944ZM1.23063 17.8363V16.5971C1.23063 14.1717 2.17511 11.8913 3.89008 10.1764C5.60504 8.4614 7.88526 7.51691 10.3106 7.51691H12.6528V3.17567L19.3275 10.4944L12.6528 17.8133V13.472H11.5488C7.66448 13.472 3.92917 15.0574 1.23063 17.8363Z" fill="#FF2998"/>
</svg>
