<svg width="17" height="17" viewBox="0 0 17 17" fill="none" xmlns="http://www.w3.org/2000/svg">
<path d="M3.76756 10.2732L3.17581 12.4823L1.01299 12.528C0.366629 11.3292 0 9.95751 0 8.49989C0 7.09038 0.342789 5.7612 0.950406 4.59082L2.87639 4.94384L3.71988 6.8578C3.54334 7.37248 3.44711 7.92498 3.44711 8.49989C3.44718 9.12384 3.5602 9.72166 3.76756 10.2732Z" fill="white"/>
<path d="M16.8502 6.91211C16.9478 7.42629 16.9987 7.95731 16.9987 8.50002C16.9987 9.10856 16.9347 9.70217 16.8128 10.2748C16.399 12.2232 15.3178 13.9246 13.8201 15.1286L11.3943 15.0044L11.0511 12.8616C12.0449 12.2788 12.8216 11.3667 13.2307 10.2748H8.68555V6.91211H16.8502Z" fill="white"/>
<path d="M13.8216 15.1282C12.3649 16.2991 10.515 17.0001 8.50068 17.0001C5.26367 17.0001 2.44866 15.1906 1.01299 12.528L3.76756 10.2732C4.48538 12.189 6.33411 13.5529 8.50068 13.5529C9.43192 13.5529 10.3044 13.3012 11.053 12.8617L13.8216 15.1282Z" fill="white"/>
<path d="M13.9263 1.95686L11.1727 4.21122C10.3979 3.72692 9.48198 3.44715 8.50076 3.44715C6.28515 3.44715 4.40174 4.87335 3.71988 6.8578L0.951637 4.59093C2.36629 1.86346 5.21565 0 8.50076 0C10.5632 0 12.4542 0.734652 13.9263 1.95686Z" fill="white"/>
</svg>
