<svg width="229" height="11" viewBox="0 0 229 11" fill="none" xmlns="http://www.w3.org/2000/svg">
<path d="M5.29202 0C8.21472 0 10.584 2.46243 10.584 5.5C10.584 8.53757 8.21472 11 5.29202 11C2.36932 11 0 8.53757 0 5.5C0 2.46243 2.36932 0 5.29202 0Z" fill="white"/>
<path d="M25.4979 0C28.4206 0 30.7899 2.46243 30.7899 5.5C30.7899 8.53757 28.4206 11 25.4979 11C22.5752 11 20.2059 8.53757 20.2059 5.5C20.2059 2.46243 22.5752 0 25.4979 0Z" fill="white"/>
<path d="M45.7038 0C48.6265 0 50.9958 2.46243 50.9958 5.5C50.9958 8.53757 48.6265 11 45.7038 11C42.7811 11 40.4118 8.53757 40.4118 5.5C40.4118 2.46243 42.7811 0 45.7038 0Z" fill="white"/>
<path d="M65.9097 0C68.8324 0 71.2017 2.46243 71.2017 5.5C71.2017 8.53757 68.8324 11 65.9097 11C62.987 11 60.6176 8.53757 60.6176 5.5C60.6176 2.46243 62.987 0 65.9097 0Z" fill="white"/>
<path d="M86.1155 0C89.0382 0 91.4076 2.46243 91.4076 5.5C91.4076 8.53757 89.0382 11 86.1155 11C83.1928 11 80.8235 8.53757 80.8235 5.5C80.8235 2.46243 83.1928 0 86.1155 0Z" fill="white"/>
<path d="M106.321 0C109.244 0 111.613 2.46243 111.613 5.5C111.613 8.53757 109.244 11 106.321 11C103.399 11 101.029 8.53757 101.029 5.5C101.029 2.46243 103.399 0 106.321 0Z" fill="white"/>
<path d="M125.565 0C128.488 0 130.857 2.46243 130.857 5.5C130.857 8.53757 128.488 11 125.565 11C122.642 11 120.273 8.53757 120.273 5.5C120.273 2.46243 122.642 0 125.565 0Z" fill="white"/>
<path d="M142.884 0C145.807 0 148.176 2.46243 148.176 5.5C148.176 8.53757 145.807 11 142.884 11C139.962 11 137.592 8.53757 137.592 5.5C137.592 2.46243 139.962 0 142.884 0Z" fill="white"/>
<path d="M163.09 0C166.013 0 168.382 2.46243 168.382 5.5C168.382 8.53757 166.013 11 163.09 11C160.168 11 157.798 8.53757 157.798 5.5C157.798 2.46243 160.168 0 163.09 0Z" fill="white"/>
<path d="M183.296 0C186.219 0 188.588 2.46243 188.588 5.5C188.588 8.53757 186.219 11 183.296 11C180.374 11 178.004 8.53757 178.004 5.5C178.004 2.46243 180.374 0 183.296 0Z" fill="white"/>
<path d="M203.502 0C206.425 0 208.794 2.46243 208.794 5.5C208.794 8.53757 206.425 11 203.502 11C200.579 11 198.21 8.53757 198.21 5.5C198.21 2.46243 200.579 0 203.502 0Z" fill="white"/>
<path d="M223.708 0C226.631 0 229 2.46243 229 5.5C229 8.53757 226.631 11 223.708 11C220.785 11 218.416 8.53757 218.416 5.5C218.416 2.46243 220.785 0 223.708 0Z" fill="white"/>
</svg>
