<svg width="18" height="18" viewBox="0 0 18 18" fill="none" xmlns="http://www.w3.org/2000/svg">
<path d="M0 9C0 13.9626 4.03735 18 9 18C13.9626 18 18 13.9626 18 9C18 4.03735 13.9626 0 9 0C4.03735 0 0 4.03735 0 9ZM16.5405 9C16.5405 13.1578 13.1578 16.5405 9 16.5405C7.18336 16.5405 5.51471 15.8946 4.21151 14.8205L14.8205 4.21142C15.8946 5.51471 16.5405 7.18326 16.5405 9ZM9 1.45946C10.8166 1.45946 12.4853 2.10542 13.7885 3.17948L3.17948 13.7886C2.10542 12.4853 1.45946 10.8167 1.45946 9C1.45946 4.84219 4.84219 1.45946 9 1.45946Z" fill="#FF2998"/>
</svg>
