<svg width="38" height="35" viewBox="0 0 38 35" fill="none" xmlns="http://www.w3.org/2000/svg">
<path fill-rule="evenodd" clip-rule="evenodd" d="M18.4833 28.3249C18.8011 28.1331 19.1989 28.1331 19.5167 28.3249L28.713 33.8754C29.4703 34.3325 30.4045 33.6535 30.2036 32.792L27.7631 22.3308C27.6788 21.9693 27.8016 21.5908 28.0822 21.3478L36.2086 14.3079C36.8772 13.7287 36.5198 12.6304 35.6384 12.5556L24.9399 11.648C24.5703 11.6166 24.2484 11.3833 24.1037 11.0418L19.9207 1.17237C19.5761 0.359343 18.4239 0.359342 18.0793 1.17237L13.8963 11.0418C13.7516 11.3833 13.4297 11.6166 13.0601 11.648L2.36163 12.5556C1.4802 12.6304 1.1228 13.7287 1.79139 14.3079L9.91779 21.3478C10.1984 21.5908 10.3212 21.9693 10.2369 22.3308L7.79641 32.792C7.59545 33.6535 8.52968 34.3325 9.287 33.8754L18.4833 28.3249Z" stroke="#FF2998"/>
</svg>
