<svg width="123" height="145" viewBox="0 0 123 145" fill="none" xmlns="http://www.w3.org/2000/svg">
<path d="M45.7627 0H0V45.7627H45.7627V0ZM38.1356 38.1356H7.62712V7.62712H38.1356V38.1356Z" fill="#9B63F8"/>
<path d="M15.2542 15.2542H30.5085V30.5085H15.2542V15.2542Z" fill="#9B63F8"/>
<path d="M0 122.034H45.7627V76.2712H0V122.034ZM7.62712 83.8983H38.1356V114.407H7.62712V83.8983Z" fill="#9B63F8"/>
<path d="M15.2542 91.5254H30.5085V106.78H15.2542V91.5254Z" fill="#9B63F8"/>
<path d="M76.2712 0V45.7627H122.034V0H76.2712ZM114.407 38.1356H83.8983V7.62712H114.407V38.1356Z" fill="#9B63F8"/>
<path d="M91.5254 15.2542H106.78V30.5085H91.5254V15.2542Z" fill="#9B63F8"/>
<path d="M15.2542 53.3898H0V68.6441H22.8814V61.017H15.2542V53.3898Z" fill="#9B63F8"/>
<path d="M53.3898 68.6441H68.6441V83.8983H53.3898V68.6441Z" fill="#9B63F8"/>
<path d="M22.8814 53.3898H38.1356V61.017H22.8814V53.3898Z" fill="#9B63F8"/>
<path d="M68.6441 91.5254H53.3898V99.1525H61.017V106.78H68.6441V91.5254Z" fill="#9B63F8"/>
<path d="M45.7627 53.3898V61.017H38.1356V68.6441H53.3898V53.3898H45.7627Z" fill="#9B63F8"/>
<path d="M61.017 30.5085H68.6441V45.7627H61.017V30.5085Z" fill="#9B63F8"/>
<path d="M68.6441 61.017V68.6441H83.8983V53.3898H61.017V61.017H68.6441Z" fill="#9B63F8"/>
<path d="M53.3898 45.7627H61.017V53.3898H53.3898V45.7627Z" fill="#9B63F8"/>
<path d="M68.6441 106.78H83.8983V122.034H68.6441V106.78Z" fill="#9B63F8"/>
<path d="M53.3898 106.78H61.017V122.034H53.3898V106.78Z" fill="#9B63F8"/>
<path d="M68.6441 83.8983H76.2712V91.5254H68.6441V83.8983Z" fill="#9B63F8"/>
<path d="M68.6441 22.8814V7.62712H61.017V0H53.3898V30.5085H61.017V22.8814H68.6441Z" fill="#9B63F8"/>
<path d="M91.5254 106.78H99.1525V122.034H91.5254V106.78Z" fill="#9B63F8"/>
<path d="M91.5254 91.5254H106.78V99.1525H91.5254V91.5254Z" fill="#9B63F8"/>
<path d="M83.8983 99.1525H91.5254V106.78H83.8983V99.1525Z" fill="#9B63F8"/>
<path d="M76.2712 91.5254H83.8983V99.1525H76.2712V91.5254Z" fill="#9B63F8"/>
<path d="M106.78 76.2712V83.8983H114.407V91.5254H122.034V76.2712H106.78Z" fill="#9B63F8"/>
<path d="M114.407 99.1525H106.78V122.034H122.034V106.78H114.407V99.1525Z" fill="#9B63F8"/>
<path d="M76.2712 76.2712V83.8983H99.1525V68.6441H83.8983V76.2712H76.2712Z" fill="#9B63F8"/>
<path d="M91.5254 53.3898V61.017H106.78V68.6441H122.034V53.3898H91.5254Z" fill="#9B63F8"/>
<path d="M36.9058 131.4V144H34.5658V133.362H31.9018V131.4H36.9058ZM50.5313 142.02V144H41.2433V142.434L46.2473 137.682C46.8113 137.142 47.1893 136.674 47.3813 136.278C47.5853 135.87 47.6873 135.468 47.6873 135.072C47.6873 134.484 47.4893 134.034 47.0933 133.722C46.6973 133.41 46.1153 133.254 45.3473 133.254C44.0633 133.254 43.0793 133.692 42.3953 134.568L40.7573 133.308C41.2493 132.648 41.9093 132.138 42.7373 131.778C43.5773 131.406 44.5133 131.22 45.5453 131.22C46.9133 131.22 48.0053 131.544 48.8213 132.192C49.6373 132.84 50.0453 133.722 50.0453 134.838C50.0453 135.522 49.9013 136.164 49.6133 136.764C49.3253 137.364 48.7733 138.048 47.9573 138.816L44.5913 142.02H50.5313ZM59.2458 136.602C60.4098 136.746 61.2978 137.142 61.9098 137.79C62.5218 138.438 62.8278 139.248 62.8278 140.22C62.8278 140.952 62.6418 141.618 62.2698 142.218C61.8978 142.818 61.3338 143.298 60.5778 143.658C59.8338 144.006 58.9218 144.18 57.8418 144.18C56.9418 144.18 56.0718 144.054 55.2318 143.802C54.4038 143.538 53.6958 143.178 53.1078 142.722L54.1158 140.904C54.5718 141.288 55.1238 141.594 55.7718 141.822C56.4318 142.038 57.1098 142.146 57.8058 142.146C58.6338 142.146 59.2818 141.978 59.7498 141.642C60.2298 141.294 60.4698 140.826 60.4698 140.238C60.4698 139.65 60.2418 139.194 59.7858 138.87C59.3418 138.534 58.6578 138.366 57.7338 138.366H56.5818V136.764L59.4438 133.362H53.7198V131.4H62.3058V132.966L59.2458 136.602ZM77.5904 141.138H75.3584V144H73.0904V141.138H66.1784V139.518L72.3884 131.4H74.8904L69.0404 139.158H73.1624V136.62H75.3584V139.158H77.5904V141.138ZM84.4645 136.278C86.2405 136.278 87.5545 136.626 88.4065 137.322C89.2585 138.006 89.6845 138.942 89.6845 140.13C89.6845 140.886 89.4985 141.57 89.1265 142.182C88.7545 142.794 88.1965 143.28 87.4525 143.64C86.7085 144 85.7905 144.18 84.6985 144.18C83.7985 144.18 82.9285 144.054 82.0885 143.802C81.2485 143.538 80.5405 143.178 79.9645 142.722L80.9545 140.904C81.4225 141.288 81.9805 141.594 82.6285 141.822C83.2885 142.038 83.9665 142.146 84.6625 142.146C85.4905 142.146 86.1385 141.978 86.6065 141.642C87.0865 141.294 87.3265 140.82 87.3265 140.22C87.3265 139.572 87.0685 139.086 86.5525 138.762C86.0485 138.426 85.1785 138.258 83.9425 138.258H80.9005L81.5485 131.4H88.9465V133.362H83.5285L83.2585 136.278H84.4645Z" fill="#9B63F8"/>
</svg>
