<svg width="88" height="30" viewBox="0 0 88 30" fill="none" xmlns="http://www.w3.org/2000/svg">
<g clip-path="url(#clip0)">
<path d="M24.9442 5.90589L15.6557 0.510846C14.9963 0.174684 14.2674 -0.000488281 13.5282 -0.000488281C12.7889 -0.000488281 12.06 0.174684 11.4006 0.510846L2.12429 5.90589C1.50621 6.31176 0.991624 6.85816 0.622046 7.501C0.252469 8.14383 0.0382587 8.8651 -0.0032959 9.60658V20.3967C0.0382587 21.1381 0.252469 21.8594 0.622046 22.5022C0.991624 23.1451 1.50621 23.6915 2.12429 24.0973L11.4127 29.4924C12.0722 29.8286 12.8011 30.0037 13.5403 30.0037C14.2796 30.0037 15.0084 29.8286 15.6679 29.4924L24.9442 24.0943C25.5622 23.6884 26.0768 23.142 26.4464 22.4992C26.816 21.8563 27.0302 21.1351 27.0718 20.3936V9.60352C27.0297 8.86257 26.8153 8.14192 26.4458 7.49965C26.0762 6.85738 25.5618 6.31146 24.9442 5.90589ZM21.1236 19.0296C20.6308 19.5357 20.0404 19.9352 19.3887 20.2034C18.7369 20.4716 18.0375 20.603 17.3335 20.5893C16.4777 20.5905 15.6341 20.385 14.8736 19.9901C14.1131 19.5952 13.4578 19.0225 12.9628 18.32V19.941C12.9632 19.9763 12.9563 20.0114 12.9427 20.044C12.9291 20.0766 12.9091 20.106 12.8838 20.1306C12.8583 20.155 12.8283 20.1741 12.7954 20.1867C12.7625 20.1993 12.7275 20.2052 12.6923 20.204L12.2212 20.1856C12.1543 20.1833 12.0909 20.1548 12.0444 20.1063C11.9979 20.0578 11.9719 19.9931 11.972 19.9257V11.6679C11.3043 11.1037 10.4579 10.7988 9.58604 10.8085C9.09035 10.8035 8.59869 10.8986 8.14015 11.0881C7.68161 11.2776 7.26548 11.5578 6.91638 11.9119C6.56727 12.266 6.29228 12.687 6.10765 13.1499C5.92303 13.6129 5.83252 14.1084 5.84149 14.6071V19.9654C5.84149 20.0344 5.81427 20.1005 5.76582 20.1493C5.71737 20.198 5.65166 20.2254 5.58314 20.2254H5.11203C5.0781 20.2254 5.04451 20.2187 5.01316 20.2056C4.98182 20.1925 4.95334 20.1734 4.92935 20.1493C4.90536 20.1251 4.88633 20.0965 4.87334 20.0649C4.86036 20.0334 4.85368 19.9996 4.85368 19.9654V10.4262C4.85368 10.3921 4.86036 10.3583 4.87334 10.3267C4.88633 10.2952 4.90536 10.2665 4.92935 10.2424C4.95334 10.2183 4.98182 10.1991 5.01316 10.1861C5.04451 10.173 5.0781 10.1663 5.11203 10.1663H5.5801C5.64862 10.1663 5.71433 10.1937 5.76278 10.2424C5.81123 10.2912 5.83845 10.3573 5.83845 10.4262V11.6343C6.17535 11.1784 6.59638 10.7921 7.07853 10.4966C7.83265 10.0346 8.70016 9.79412 9.583 9.80231C10.4204 9.79798 11.2431 10.0232 11.9629 10.4538V9.80231C11.9629 9.73337 11.9901 9.66724 12.0385 9.61849C12.087 9.56974 12.1527 9.54235 12.2212 9.54235H12.6923C12.7608 9.54235 12.8265 9.56974 12.875 9.61849C12.9234 9.66724 12.9507 9.73337 12.9507 9.80231V12.0625C13.4464 11.3621 14.1016 10.7914 14.8615 10.3982C15.6214 10.005 16.4638 9.80065 17.3183 9.80231C18.0237 9.79949 18.7228 9.93702 19.3752 10.207C20.0277 10.477 20.6206 10.8741 21.12 11.3754C21.6194 11.8768 22.0154 12.4726 22.2851 13.1285C22.5549 13.7844 22.6932 14.4875 22.692 15.1974C22.7031 15.9098 22.5698 16.6171 22.3001 17.276C22.0305 17.9349 21.6302 18.5316 21.1236 19.0296Z" fill="white"/>
<path d="M17.3337 10.7993C16.3961 10.7895 15.4815 11.0916 14.732 11.6587C13.9751 12.2008 13.4225 12.9843 13.1637 13.8822C13.0353 14.2951 12.9687 14.7249 12.9661 15.1575C12.9464 15.9512 13.1463 16.7348 13.5436 17.4208C13.9377 18.079 14.4932 18.6244 15.1568 19.0047C15.8205 19.3849 16.5701 19.5872 17.3337 19.5923C17.9102 19.6069 18.4835 19.5015 19.0175 19.2825C19.5516 19.0636 20.0348 18.7358 20.437 18.32C20.8455 17.9123 21.1672 17.4252 21.3824 16.8883C21.5977 16.3514 21.7021 15.7761 21.6892 15.1973C21.686 14.0345 21.2266 12.92 20.4109 12.0964C19.5952 11.2727 18.4893 10.8066 17.3337 10.7993Z" fill="white"/>
<path d="M36.9531 19.7452V9.32214H41.3876C41.8246 9.31804 42.2564 9.41647 42.649 9.60964C43.0263 9.79602 43.3631 10.0559 43.6398 10.3742C43.9165 10.6905 44.1366 11.0527 44.2903 11.4447C44.4453 11.8337 44.5248 12.249 44.5243 12.6681C44.5256 13.0234 44.4744 13.3769 44.3723 13.7171C44.2753 14.0442 44.1276 14.3538 43.9347 14.6346C43.7466 14.9062 43.5143 15.144 43.2477 15.338C42.9733 15.5365 42.6638 15.6808 42.3359 15.7632L44.8465 19.7575H43.3572L40.9925 16.014H38.257V19.7452H36.9531ZM38.2661 14.8273H41.4028C41.6588 14.8306 41.9116 14.7696 42.1384 14.6499C42.3572 14.5326 42.5488 14.37 42.7007 14.1728C42.861 13.9631 42.9844 13.7272 43.0654 13.4755C43.1529 13.2102 43.1971 12.9323 43.1961 12.6528C43.1982 12.3693 43.1466 12.088 43.0441 11.8239C42.9471 11.5725 42.8095 11.339 42.6368 11.1327C42.475 10.9418 42.2765 10.7858 42.0533 10.674C41.8283 10.5624 41.5807 10.5048 41.3299 10.5058H38.2905L38.2661 14.8273Z" fill="white"/>
<path d="M49.8068 19.892C49.2665 19.9015 48.7303 19.7973 48.2324 19.5862C47.7739 19.3847 47.3604 19.0925 47.0166 18.7268C46.6723 18.3593 46.4019 17.9283 46.2203 17.4575C46.03 16.9705 45.9331 16.4516 45.9346 15.9283C45.9317 15.4049 46.0287 14.8858 46.2203 14.3991C46.3989 13.9248 46.6685 13.4904 47.0136 13.1207C47.3642 12.7548 47.7837 12.4626 48.2476 12.2613C48.7455 12.0502 49.2817 11.946 49.822 11.9554C50.5891 11.9414 51.3415 12.1676 51.9753 12.6026C52.6091 13.0376 53.0929 13.6601 53.3599 14.3838C53.5391 14.8544 53.6308 15.3541 53.6304 15.858C53.6304 15.966 53.6304 16.068 53.6304 16.1638C53.6277 16.2325 53.6206 16.301 53.6091 16.3687H47.2841C47.3075 16.7295 47.396 17.0829 47.5455 17.4117C47.6834 17.714 47.8761 17.9878 48.1138 18.2191C48.3449 18.443 48.6148 18.6223 48.9102 18.7482C49.2081 18.8754 49.5287 18.94 49.8524 18.9378C50.0846 18.9384 50.3158 18.9065 50.5393 18.843C50.757 18.7817 50.9671 18.6955 51.1654 18.5861C51.3564 18.4803 51.5306 18.3463 51.6821 18.1885C51.83 18.0366 51.9467 17.8568 52.0256 17.6594L53.1349 17.9652C53.007 18.2514 52.8323 18.5139 52.6182 18.7421C52.3951 18.9812 52.1393 19.1872 51.8584 19.3538C51.5594 19.5303 51.2385 19.666 50.904 19.7575C50.546 19.8522 50.1769 19.8975 49.8068 19.892ZM52.4176 15.3992C52.392 15.0495 52.3002 14.708 52.1471 14.393C52.0066 14.0985 51.814 13.8322 51.5788 13.607C51.2169 13.2712 50.768 13.0453 50.2839 12.9555C49.7998 12.8657 49.3004 12.9155 48.8433 13.0993C48.5476 13.2176 48.2772 13.3921 48.047 13.6131C47.8155 13.8382 47.6279 14.1047 47.4938 14.3991C47.3499 14.7134 47.2635 15.0511 47.2385 15.3962L52.4176 15.3992Z" fill="white"/>
<path d="M58.1804 19.8919C57.676 19.896 57.1772 19.7852 56.7215 19.5678C56.2837 19.3599 55.892 19.0655 55.5695 18.7022C55.2433 18.3319 54.9887 17.9035 54.8188 17.4391C54.638 16.9562 54.5463 16.4442 54.5483 15.9282C54.5462 15.4076 54.6325 14.8904 54.8036 14.399C54.9608 13.932 55.203 13.4985 55.5179 13.1206C55.8201 12.7616 56.1926 12.4691 56.612 12.2612C57.0462 12.052 57.5228 11.9473 58.0041 11.9554C58.5871 11.9462 59.1592 12.1146 59.6454 12.4386C60.1076 12.7416 60.4987 13.1423 60.7912 13.613V9.02539H62.0738V18.1578C62.0738 18.4616 62.2096 18.6186 62.4811 18.6288V19.7451L62.1954 19.788C62.1205 19.7922 62.0454 19.7922 61.9705 19.788C61.7178 19.8009 61.4692 19.7204 61.2714 19.5616C61.1892 19.4949 61.1219 19.4113 61.0742 19.3163C61.0266 19.2214 60.9995 19.1174 60.9949 19.0111L60.9645 18.2924C60.6731 18.7741 60.264 19.1726 59.776 19.4499C59.2881 19.7273 58.7377 19.8742 58.1773 19.8766L58.1804 19.8919ZM58.4843 18.7756C58.7311 18.7736 58.9758 18.7291 59.2077 18.6441C59.4566 18.5552 59.6919 18.4317 59.9068 18.2771C60.1225 18.1233 60.3141 17.9377 60.4751 17.7266C60.6251 17.5302 60.729 17.3023 60.7791 17.0598V14.8578C60.6864 14.605 60.5529 14.3694 60.3839 14.1605C60.2132 13.9446 60.0149 13.7523 59.7943 13.5885C59.5799 13.4292 59.3447 13.3006 59.0952 13.2062C58.8604 13.1154 58.6113 13.0677 58.3597 13.0656C58.0028 13.0603 57.65 13.1433 57.3324 13.3072C57.0291 13.4662 56.7613 13.6858 56.5452 13.9525C56.3235 14.2253 56.1526 14.5361 56.0406 14.87C55.9243 15.2127 55.8648 15.5723 55.8643 15.9344C55.8625 16.309 55.9316 16.6806 56.068 17.0293C56.1933 17.3674 56.381 17.6787 56.6212 17.9468C56.854 18.2021 57.1337 18.4098 57.4448 18.5585C57.7713 18.71 58.1279 18.7842 58.4874 18.7756H58.4843Z" fill="white"/>
<path d="M68.1435 19.8918C67.5735 19.8982 67.0128 19.7458 66.5235 19.4513C66.054 19.1749 65.6594 18.7862 65.3746 18.3197V19.7572H64.2409V9.05273H65.5236V13.6404C65.8271 13.1579 66.2304 12.7469 66.7059 12.4353C67.1621 12.1609 67.6797 12.0064 68.2108 11.986C68.742 11.9657 69.2697 12.0803 69.7453 12.3191C70.1583 12.5395 70.5232 12.8411 70.8182 13.2061C71.1226 13.5866 71.3553 14.0198 71.5051 14.4845C71.6646 14.9646 71.7457 15.4677 71.7452 15.9739C71.7486 16.4966 71.6548 17.0152 71.4687 17.5031C71.2941 17.9646 71.0365 18.3897 70.7088 18.7571C70.3869 19.1144 69.9973 19.4035 69.5629 19.6073C69.1166 19.8069 68.6318 19.9041 68.1435 19.8918ZM67.8214 18.7754C68.1852 18.7791 68.545 18.6985 68.873 18.5399C69.1916 18.3883 69.4768 18.1741 69.7119 17.9099C69.9476 17.6408 70.1312 17.3296 70.2529 16.9924C70.3794 16.652 70.4432 16.2914 70.4413 15.9281C70.4421 15.5604 70.3805 15.1952 70.259 14.8484C70.1447 14.5143 69.9718 14.2035 69.7484 13.9309C69.5308 13.6673 69.2632 13.4499 68.9611 13.2917C68.6476 13.1285 68.299 13.0455 67.946 13.0501C67.6817 13.0488 67.4196 13.0987 67.174 13.1969C66.9314 13.2944 66.7033 13.4251 66.4962 13.5853C66.287 13.7476 66.1009 13.938 65.943 14.1511C65.782 14.3672 65.6426 14.5987 65.5266 14.8423V17.0597C65.5733 17.306 65.6775 17.5377 65.8305 17.7356C65.9921 17.9418 66.1837 18.1223 66.3989 18.2708C66.615 18.4217 66.8501 18.5431 67.098 18.6317C67.3301 18.7212 67.5759 18.7699 67.8244 18.7754H67.8214Z" fill="white"/>
<path d="M76.6508 19.892C76.131 19.8992 75.6154 19.797 75.1371 19.5922C74.6587 19.3873 74.2281 19.0842 73.8728 18.7023C73.5341 18.3357 73.2689 17.9069 73.0917 17.4392C72.9067 16.9573 72.8129 16.4449 72.8151 15.9283C72.8123 15.4049 72.9093 14.8858 73.1008 14.3991C73.2823 13.9322 73.5493 13.5037 73.888 13.136C74.2319 12.7688 74.6452 12.4745 75.1038 12.2704C75.5923 12.0512 76.1221 11.9406 76.6569 11.9463C77.1772 11.9411 77.6929 12.0445 78.1715 12.2498C78.6501 12.455 79.0814 12.7578 79.438 13.139C79.7767 13.5068 80.0437 13.9352 80.2252 14.4022C80.4167 14.8888 80.5137 15.4079 80.5109 15.9314C80.5131 16.4479 80.4193 16.9604 80.2343 17.4422C80.0576 17.9151 79.7893 18.3478 79.4449 18.7154C79.1005 19.0829 78.687 19.3779 78.2283 19.5831C77.7308 19.7994 77.1926 19.9047 76.6508 19.892ZM74.1281 15.9436C74.1247 16.3248 74.1917 16.7033 74.3257 17.0599C74.4494 17.3898 74.6328 17.6936 74.8667 17.956C75.091 18.2117 75.3638 18.4196 75.6691 18.5677C75.9774 18.7128 76.3136 18.7879 76.6539 18.7879C76.9942 18.7879 77.3304 18.7128 77.6386 18.5677C77.9456 18.4195 78.2204 18.2116 78.4471 17.956C78.6855 17.6877 78.8711 17.3764 78.9942 17.0385C79.1277 16.6797 79.1947 16.2992 79.1918 15.9161C79.1937 15.538 79.1267 15.1627 78.9942 14.8089C78.8711 14.4711 78.6854 14.1598 78.4471 13.8914C78.2203 13.6359 77.9456 13.428 77.6386 13.2797C77.3311 13.1326 76.9944 13.0574 76.6539 13.0595C76.3126 13.0572 75.9755 13.1347 75.6691 13.2858C75.3645 13.4351 75.092 13.6429 74.8667 13.8975C74.632 14.1674 74.4486 14.4784 74.3257 14.815C74.1905 15.1756 74.1225 15.5582 74.1251 15.9436H74.1281Z" fill="white"/>
<path d="M82.2221 12.0808L84.301 14.9007L84.4165 15.1362L84.5472 14.9007L86.6201 12.0808H87.9757L85.1308 15.9283L87.9909 19.7452H86.6353L84.5503 16.9406L84.4196 16.7204L84.3041 16.9406L82.219 19.7452H80.8665L83.7266 15.9283L80.8817 12.0808H82.2221Z" fill="white"/>
</g>
<defs>
<clipPath id="clip0">
<rect width="88" height="30" fill="white"/>
</clipPath>
</defs>
</svg>
