<svg width="24" height="25" viewBox="0 0 24 25" fill="none" xmlns="http://www.w3.org/2000/svg">
<path d="M16.2058 14.1946L22.5267 20.1626C22.594 20.2305 22.7284 20.3661 22.7957 20.4339C22.8629 20.5696 22.9302 20.6374 22.9974 20.773C23.0647 20.9086 23.0647 20.9765 23.1319 21.1121C23.1319 21.2477 23.1992 21.3156 23.1992 21.4512C23.1992 21.5868 23.1992 21.7225 23.1992 21.7903C23.1992 21.9259 23.1319 22.0616 23.0647 22.1294C22.9974 22.265 22.9302 22.3328 22.8629 22.4685C22.7957 22.6041 22.7284 22.6719 22.594 22.7397L21.7198 23.6214C21.6525 23.6892 21.5181 23.757 21.4508 23.8248C21.3163 23.8926 21.2491 23.9605 21.1146 24.0283C20.9801 24.0961 20.9129 24.0961 20.7784 24.0961C20.6439 24.0961 20.5094 24.0961 20.4422 24.0961C20.3077 24.0961 20.1732 24.0961 20.1059 24.0283C19.9714 24.0283 19.837 23.9605 19.7697 23.8926C19.6352 23.8248 19.568 23.757 19.4335 23.6892C19.299 23.6214 19.2318 23.5536 19.1645 23.4179L13.2471 17.043C12.6419 17.3821 12.0367 17.6534 11.4315 17.8568C10.5573 18.1281 9.68313 18.2637 8.74171 18.2637C7.59856 18.2637 6.45542 18.0603 5.37951 17.5856C4.37086 17.1786 3.3622 16.5005 2.55527 15.6866C1.6811 14.805 1.0759 13.8556 0.672439 12.8383C0.201732 11.7532 0 10.6003 0 9.44738C0 8.29447 0.201732 7.14156 0.672439 6.05647C1.0759 5.0392 1.74834 4.02193 2.55527 3.20811C3.29495 2.59774 4.23637 1.91956 5.31227 1.51265C6.38817 1.03793 7.53132 0.834473 8.67447 0.834473C10.8935 0.834473 13.1798 1.71611 14.8609 3.41156C15.6678 4.2932 16.3403 5.24265 16.7437 6.25992C17.2144 7.34502 17.4162 8.49792 17.4162 9.65083C17.4162 11.2785 17.0127 12.8383 16.2058 14.1946ZM21.3836 21.3834L14.054 14.4659L14.4574 13.8556C15.3316 12.6348 15.8023 11.1428 15.8023 9.65083C15.8023 8.70138 15.6006 7.75192 15.2644 6.87029C14.9282 6.05647 14.3902 5.24265 13.7178 4.56447C12.3056 3.14029 10.4901 2.46211 8.67447 2.46211C7.73305 2.46211 6.79164 2.66556 5.91747 3.00465C5.04329 3.41156 4.30361 3.88629 3.63117 4.63229C2.95873 5.31047 2.42078 6.12429 2.08456 6.93811C1.74834 7.81974 1.54661 8.7692 1.54661 9.71865C1.54661 10.6681 1.74834 11.6176 2.08456 12.4992C2.42078 13.3808 2.95873 14.1268 3.63117 14.805C4.30361 15.4832 5.11054 16.0257 5.91747 16.3648C6.79164 16.7039 7.73305 16.9074 8.67447 16.9074C9.41415 16.9074 10.1538 16.7717 10.8263 16.5683C11.4987 16.3648 12.1712 16.0257 12.7763 15.551L13.3815 15.1441L20.2404 22.5363C20.3077 22.6041 20.3077 22.6041 20.3749 22.6041H20.4422H20.5094C20.7784 22.3328 21.1146 21.9937 21.3836 21.7225V21.6546V21.5868V21.3834C21.4508 21.3834 21.4508 21.3834 21.3836 21.3834Z" fill="#9B63F8"/>
</svg>
