<svg width="7" height="24" viewBox="0 0 7 24" fill="none" xmlns="http://www.w3.org/2000/svg">
<path d="M0.664 0.599998H6.616L5.624 15.224H1.656L0.664 0.599998ZM3.64 23.256C2.76533 23.256 2.02933 22.9787 1.432 22.424C0.856 21.848 0.568 21.1547 0.568 20.344C0.568 19.5333 0.856 18.8613 1.432 18.328C2.008 17.7733 2.744 17.496 3.64 17.496C4.536 17.496 5.272 17.7733 5.848 18.328C6.424 18.8613 6.712 19.5333 6.712 20.344C6.712 21.1547 6.41333 21.848 5.816 22.424C5.24 22.9787 4.51467 23.256 3.64 23.256Z" fill="white"/>
</svg>
