<svg width="14" height="14" viewBox="0 0 14 14" fill="none" xmlns="http://www.w3.org/2000/svg">
<path d="M11.9301 2.06992C10.6094 0.749246 8.86214 0 7 0C3.15391 0 0 3.1477 0 7C0 10.8543 3.14658 14 7 14C10.8365 14 14 10.8667 14 7C14 5.13786 13.2508 3.3906 11.9301 2.06992ZM7 12.332C4.05273 12.332 1.66797 9.95354 1.66797 7C1.66797 5.85154 2.02891 4.76052 2.69336 3.85818L10.1418 11.2984C9.23943 11.9711 8.14846 12.332 7 12.332ZM11.2984 10.1418L3.85818 2.69336C4.76057 2.02891 5.85154 1.66797 7 1.66797C9.94736 1.66797 12.332 4.04646 12.332 7C12.332 8.14841 11.9711 9.23943 11.2984 10.1418Z" fill="white"/>
</svg>
