<svg width="46" height="58" viewBox="0 0 46 58" fill="none" xmlns="http://www.w3.org/2000/svg">
<path d="M31.2885 0.448257C31.0222 0.168152 30.6572 0 30.2789 0H7.62931C3.44987 0 0 3.43251 0 7.6071V50.3925C0 54.5675 3.44987 58 7.62931 58H38.3707C42.5501 58 46 54.5675 46 50.3925V16.4191C46 16.055 45.8317 15.7049 45.5933 15.4386L31.2885 0.448257ZM31.6951 4.94543L41.2739 14.9903H35.0471C33.1959 14.9903 31.6951 13.5052 31.6951 11.656V4.94543ZM38.3707 55.1981H7.62931C5.00691 55.1981 2.8049 53.0267 2.8049 50.3925V7.6071C2.8049 4.98747 4.99274 2.80194 7.62931 2.80194H28.8902V11.656C28.8902 15.0602 31.6393 17.7922 35.0471 17.7922H43.1951V50.3925C43.1951 53.0267 41.0073 55.1981 38.3707 55.1981Z" fill="#211536"/>
<path d="M34.5418 45.5314H11.4577C10.6865 45.5314 10.0552 46.1616 10.0552 46.9324C10.0552 47.7028 10.6865 48.3334 11.4577 48.3334H34.556C35.3272 48.3334 35.9585 47.7028 35.9585 46.9324C35.9585 46.1616 35.3272 45.5314 34.5418 45.5314Z" fill="#211536"/>
<path d="M21.9759 40.5017C22.2426 40.7818 22.6071 40.9499 22.9996 40.9499C23.3925 40.9499 23.7571 40.7818 24.0233 40.5017L32.2418 31.6896C32.7747 31.129 32.7326 30.2325 32.1718 29.7143C31.6105 29.1819 30.7131 29.2235 30.1944 29.7842L24.4021 35.9903V20.692C24.4021 19.9212 23.7708 19.2911 22.9996 19.2911C22.2284 19.2911 21.5972 19.9212 21.5972 20.692V35.9903L15.819 29.7842C15.2861 29.224 14.4024 29.1819 13.8416 29.7143C13.2808 30.2466 13.2387 31.1294 13.7716 31.6896L21.9759 40.5017Z" fill="#211536"/>
</svg>
