<svg width="35" height="43" viewBox="0 0 35 43" fill="none" xmlns="http://www.w3.org/2000/svg">
<path d="M23.1966 0.332329C22.9992 0.124664 22.7286 0 22.4482 0H5.65621C2.55766 0 0 2.54479 0 5.63975V37.3599C0 40.4552 2.55766 43 5.65621 43H28.4472C31.5458 43 34.1034 40.4552 34.1034 37.3599V12.1728C34.1034 11.9028 33.9786 11.6433 33.802 11.4458L23.1966 0.332329ZM23.4981 3.66644L30.5996 11.1135H25.9832C24.6107 11.1135 23.4981 10.0125 23.4981 8.64153V3.66644ZM28.4472 40.9227H5.65621C3.71202 40.9227 2.07949 39.3129 2.07949 37.3599V5.63975C2.07949 3.69761 3.70151 2.0773 5.65621 2.0773H21.4186V8.64153C21.4186 11.1653 23.4567 13.1908 25.9832 13.1908H32.0239V37.3599C32.0239 39.3129 30.4019 40.9227 28.4472 40.9227Z" fill="#9B63F8"/>
<path d="M25.6086 33.7561H8.49448C7.92272 33.7561 7.45473 34.2232 7.45473 34.7947C7.45473 35.3659 7.92272 35.8334 8.49448 35.8334H25.6191C26.1909 35.8334 26.6589 35.3659 26.6589 34.7947C26.6589 34.2232 26.1909 33.7561 25.6086 33.7561Z" fill="#9B63F8"/>
<path d="M16.2925 30.0271C16.4902 30.2348 16.7605 30.3594 17.0514 30.3594C17.3427 30.3594 17.613 30.2348 17.8104 30.0271L23.9034 23.494C24.2985 23.0784 24.2673 22.4137 23.8515 22.0296C23.4354 21.6349 22.77 21.6657 22.3855 22.0814L18.0912 26.6825V15.3407C18.0912 14.7692 17.6232 14.302 17.0514 14.302C16.4797 14.302 16.0117 14.7692 16.0117 15.3407V26.6825L11.7279 22.0814C11.3328 21.6661 10.6776 21.6349 10.2619 22.0296C9.84612 22.4242 9.81492 23.0787 10.21 23.494L16.2925 30.0271Z" fill="#9B63F8"/>
</svg>
