<svg width="19" height="19" viewBox="0 0 19 19" fill="none" xmlns="http://www.w3.org/2000/svg">
<path d="M15.6628 1H3.33719C2.04849 1 1 2.13942 1 3.54037V11.7391C1 13.1369 2.04393 14.2745 3.32889 14.2795V18L8.24803 14.2795H15.6628C16.9515 14.2795 18 13.1399 18 11.7391V3.54037C18 2.13942 16.9515 1 15.6628 1ZM17.0039 11.7391C17.0039 12.5428 16.4023 13.1968 15.6628 13.1968H7.93551L4.32498 15.9277V13.1968H3.33719C2.59769 13.1968 1.99609 12.5428 1.99609 11.7391V3.54037C1.99609 2.73647 2.59769 2.08269 3.33719 2.08269H15.6628C16.4023 2.08269 17.0039 2.73647 17.0039 3.54037V11.7391Z" fill="white" stroke="white" stroke-width="0.3"/>
<path d="M5.55078 4.8252H13.4509V5.90776H5.55078V4.8252Z" fill="white" stroke="white" stroke-width="0.3"/>
<path d="M5.55078 7.13525H13.4509V8.21805H5.55078V7.13525Z" fill="white" stroke="white" stroke-width="0.3"/>
<path d="M5.55078 9.44507H13.4509V10.5279H5.55078V9.44507Z" fill="white" stroke="white" stroke-width="0.3"/>
</svg>
